<svg width="21" height="16" viewBox="0 0 21 16" fill="none" xmlns="http://www.w3.org/2000/svg">
<path d="M7.41534 1.9776L2.62456 15.4634H0.666504L6.18285 0.666626H7.44515L7.41534 1.9776ZM11.4308 15.4634L6.63013 1.9776L6.60031 0.666626H7.86261L13.3988 15.4634H11.4308ZM11.1824 9.98573V11.5914H3.05195V9.98573H11.1824Z" fill="white"/>
<path d="M18.45 13.5833V7.92272C18.45 7.48912 18.3639 7.1131 18.1916 6.79467C18.0259 6.46947 17.7741 6.21879 17.4362 6.04264C17.0983 5.86649 16.6808 5.77841 16.1838 5.77841C15.72 5.77841 15.3125 5.85971 14.9613 6.02232C14.6167 6.18492 14.3451 6.39833 14.1463 6.66256C13.9541 6.92679 13.858 7.21134 13.858 7.51622H12.0193C12.0193 7.12327 12.1186 6.7337 12.3174 6.34752C12.5162 5.96134 12.8011 5.61243 13.1722 5.30077C13.5499 4.98234 14.0005 4.73167 14.524 4.54874C15.0541 4.35904 15.6438 4.26419 16.2932 4.26419C17.0751 4.26419 17.7642 4.39969 18.3606 4.67069C18.9636 4.94169 19.434 5.35159 19.772 5.90037C20.1165 6.44237 20.2888 7.12327 20.2888 7.94305V13.065C20.2888 13.4309 20.3186 13.8204 20.3783 14.2337C20.4445 14.647 20.5406 15.0027 20.6665 15.3008V15.4634H18.7482C18.6554 15.2466 18.5826 14.9586 18.5295 14.5996C18.4765 14.2337 18.45 13.8949 18.45 13.5833ZM18.7681 8.79671L18.788 10.1178H16.9293C16.4058 10.1178 15.9387 10.1619 15.5279 10.25C15.117 10.3313 14.7725 10.4566 14.4942 10.626C14.2159 10.7954 14.0038 11.0088 13.858 11.2662C13.7123 11.5169 13.6394 11.8116 13.6394 12.1504C13.6394 12.4959 13.7156 12.8109 13.868 13.0955C14.0204 13.38 14.249 13.607 14.5538 13.7764C14.8652 13.939 15.2462 14.0203 15.6968 14.0203C16.2601 14.0203 16.757 13.8983 17.1877 13.6544C17.6184 13.4105 17.9597 13.1124 18.2115 12.7601C18.4699 12.4078 18.6091 12.0657 18.6289 11.7337L19.4141 12.6382C19.3678 12.9227 19.2419 13.2378 19.0364 13.5833C18.831 13.9288 18.556 14.2608 18.2115 14.5792C17.8735 14.8909 17.4693 15.1517 16.9989 15.3617C16.535 15.565 16.0116 15.6666 15.4285 15.6666C14.6996 15.6666 14.0601 15.521 13.5102 15.2296C12.9668 14.9383 12.5427 14.5487 12.2379 14.0609C11.9397 13.5664 11.7906 13.0142 11.7906 12.4044C11.7906 11.815 11.9033 11.2967 12.1286 10.8496C12.3539 10.3956 12.6786 10.0196 13.1026 9.7215C13.5267 9.41663 14.0369 9.18627 14.6333 9.03045C15.2297 8.87462 15.8956 8.79671 16.6311 8.79671H18.7681Z" fill="white"/>
</svg>
