<svg width="39" height="48" viewBox="0 0 39 48" fill="none" xmlns="http://www.w3.org/2000/svg">
<path d="M32.5738 25.5166C32.5975 23.6896 33.0855 21.8982 33.9925 20.3092C34.8995 18.7201 36.196 17.385 37.7614 16.4281C36.7669 15.0159 35.4551 13.8537 33.9299 13.0339C32.4048 12.214 30.7084 11.7591 28.9755 11.7052C25.2789 11.3193 21.6953 13.9046 19.8115 13.9046C17.8914 13.9046 14.9911 11.7435 11.868 11.8073C9.84791 11.8722 7.87916 12.4564 6.15358 13.5028C4.42801 14.5492 3.00446 16.0223 2.02163 17.7784C-2.23564 25.1078 0.93991 35.8795 5.01809 41.8041C7.05851 44.7052 9.44315 47.9457 12.5634 47.8308C15.6168 47.7049 16.7572 45.8948 20.4429 45.8948C24.0944 45.8948 25.1643 47.8308 28.3479 47.7578C31.6243 47.7049 33.6886 44.8438 35.6575 41.9153C37.1235 39.8481 38.2516 37.5635 39 35.146C37.0965 34.3455 35.4721 33.0055 34.3293 31.2931C33.1865 29.5807 32.576 27.5717 32.5738 25.5166Z" fill="white"/>
<path d="M26.5605 7.8073C28.347 5.67485 29.2271 2.93393 29.014 0.166626C26.2847 0.451665 23.7636 1.74872 21.9531 3.79936C21.0678 4.80115 20.3898 5.96661 19.9578 7.22911C19.5258 8.4916 19.3483 9.82639 19.4354 11.1572C20.8005 11.1711 22.151 10.8769 23.3852 10.2967C24.6194 9.7164 25.7051 8.86525 26.5605 7.8073Z" fill="white"/>
</svg>
