<svg width="249" height="208" viewBox="0 0 249 208" fill="none" xmlns="http://www.w3.org/2000/svg">
<path d="M112.093 112.054C112.079 112.034 112.067 112.012 112.056 111.986C111.615 110.932 111.3 109.843 111.068 108.732C110.988 108.352 110.994 107.961 111.011 107.573C111.014 107.504 111.017 107.435 111.02 107.366C111.025 107.251 111.03 107.136 111.035 107.021C111.11 105.549 111.354 104.105 111.8 102.693C112.055 101.888 112.383 101.111 112.763 100.353C112.876 100.127 112.985 99.8987 113.1 99.6594C113.154 99.5472 113.209 99.4324 113.266 99.3142C113.281 99.3426 113.295 99.3677 113.307 99.3909C113.332 99.436 113.352 99.4736 113.37 99.512C113.46 99.7033 113.549 99.8949 113.638 100.087C113.825 100.488 114.011 100.889 114.206 101.286C114.457 101.8 114.767 102.283 115.132 102.733C115.151 102.756 115.171 102.778 115.196 102.805C115.209 102.818 115.223 102.833 115.239 102.85C115.993 101.666 116.656 100.451 117.241 99.1981C117.828 97.9428 118.325 96.6559 118.748 95.3424C119.144 94.1126 119.431 92.857 119.726 91.567C119.745 91.4822 119.764 91.3972 119.784 91.312C119.816 91.3365 119.845 91.357 119.871 91.3756C119.92 91.4108 119.96 91.4389 119.993 91.4726C120.145 91.6281 120.298 91.7832 120.451 91.9383C120.906 92.3998 121.362 92.8613 121.807 93.3307C122.593 94.1573 123.31 95.0356 123.958 95.9641C124.636 96.9358 125.222 97.9546 125.659 99.0467C125.67 99.0721 125.682 99.0968 125.698 99.1289C125.708 99.1477 125.718 99.1691 125.731 99.1947C126.015 98.7073 126.225 98.219 126.384 97.7121C126.494 97.3639 126.594 97.013 126.695 96.6607C126.739 96.5047 126.784 96.3484 126.83 96.1919C126.841 96.1953 126.852 96.1977 126.861 96.1997C126.878 96.2034 126.89 96.2061 126.899 96.2129C127.042 96.3234 127.186 96.4322 127.33 96.541C127.798 96.8943 128.266 97.2476 128.684 97.6584C129.349 98.3138 129.898 99.0433 130.269 99.8878C130.322 100.008 130.369 100.13 130.422 100.264C130.448 100.331 130.475 100.4 130.504 100.474L130.823 100.001C131.107 99.5796 131.386 99.1663 131.67 98.7446C131.681 98.7563 131.692 98.7666 131.702 98.7763C131.72 98.7949 131.737 98.8109 131.75 98.8289C131.834 98.941 131.918 99.0529 132.002 99.1647C132.415 99.7148 132.828 100.265 133.189 100.849C133.933 102.052 134.491 103.324 134.769 104.699C134.932 105.508 134.984 106.324 134.941 107.146C134.91 107.754 134.761 108.339 134.572 108.916C134.53 109.047 134.485 109.176 134.44 109.306C134.388 109.454 134.337 109.601 134.289 109.75C134.264 109.828 134.229 109.892 134.18 109.945C132.899 112.653 126.845 115.391 122.784 115.858C118.694 116.328 112.75 114.123 112.101 112.094C112.097 112.081 112.094 112.068 112.093 112.054Z" fill="#E0A714"/>
<path d="M172.704 110.633C172.693 110.616 172.683 110.597 172.674 110.576C172.307 109.699 172.045 108.794 171.852 107.87C171.786 107.553 171.791 107.229 171.805 106.906C171.808 106.849 171.81 106.791 171.812 106.734C171.816 106.638 171.82 106.542 171.825 106.447C171.887 105.223 172.09 104.022 172.461 102.848C172.673 102.178 172.946 101.532 173.262 100.902C173.356 100.714 173.447 100.524 173.542 100.325C173.587 100.232 173.633 100.136 173.68 100.038C173.693 100.062 173.704 100.082 173.715 100.102C173.735 100.139 173.752 100.17 173.767 100.202C173.842 100.361 173.916 100.521 173.99 100.68C174.145 101.014 174.3 101.347 174.462 101.678C174.671 102.105 174.928 102.507 175.232 102.881C175.248 102.9 175.265 102.918 175.285 102.941C175.296 102.952 175.308 102.964 175.321 102.979C175.948 101.994 176.499 100.984 176.986 99.9414C177.474 98.8975 177.887 97.8273 178.239 96.7349C178.568 95.7123 178.807 94.6681 179.052 93.5954C179.068 93.5248 179.084 93.4541 179.1 93.3833C179.127 93.4036 179.151 93.4207 179.173 93.4362C179.214 93.4655 179.247 93.4888 179.274 93.5169C179.401 93.6461 179.528 93.7751 179.656 93.9041C180.034 94.2879 180.412 94.6717 180.783 95.0621C181.436 95.7495 182.033 96.4798 182.572 97.252C183.136 98.06 183.623 98.9073 183.986 99.8155C183.995 99.8366 184.005 99.8571 184.019 99.8838C184.027 99.8995 184.035 99.9173 184.046 99.9385C184.283 99.5332 184.457 99.1272 184.589 98.7056C184.68 98.416 184.764 98.1242 184.847 97.8313C184.884 97.7015 184.922 97.5715 184.96 97.4414C184.969 97.4443 184.978 97.4462 184.986 97.4479C185 97.451 185.01 97.4533 185.017 97.4589C185.136 97.5508 185.256 97.6412 185.376 97.7317C185.765 98.0255 186.154 98.3194 186.501 98.6609C187.055 99.206 187.512 99.8126 187.82 100.515C187.864 100.615 187.903 100.717 187.947 100.828C187.968 100.883 187.991 100.941 188.015 101.002L188.281 100.609C188.517 100.259 188.749 99.9149 188.985 99.5643C188.994 99.574 189.003 99.5826 189.011 99.5906C189.027 99.606 189.04 99.6194 189.051 99.6344C189.121 99.7276 189.191 99.8206 189.261 99.9136C189.604 100.371 189.948 100.828 190.248 101.314C190.867 102.315 191.331 103.372 191.562 104.516C191.698 105.189 191.741 105.867 191.705 106.551C191.679 107.056 191.555 107.543 191.398 108.023C191.363 108.131 191.326 108.239 191.288 108.347C191.245 108.47 191.203 108.593 191.163 108.716C191.142 108.781 191.113 108.834 191.072 108.879C190.007 111.131 184.972 113.407 181.595 113.796C178.194 114.187 173.251 112.353 172.712 110.665C172.708 110.655 172.706 110.644 172.704 110.633Z" fill="#E0A714"/>
<path d="M58.9701 110.633C58.9589 110.616 58.949 110.597 58.9401 110.576C58.5729 109.699 58.3112 108.794 58.1181 107.87C58.0519 107.553 58.0564 107.229 58.0711 106.906C58.0736 106.849 58.076 106.791 58.0784 106.734C58.0823 106.638 58.0862 106.542 58.091 106.447C58.1533 105.223 58.356 104.022 58.7271 102.848C58.9388 102.178 59.2119 101.532 59.5274 100.902C59.6215 100.714 59.7125 100.524 59.808 100.325C59.8528 100.232 59.8986 100.136 59.9462 100.038C59.9586 100.062 59.97 100.082 59.9804 100.102C60.0008 100.139 60.0177 100.17 60.0327 100.202C60.1076 100.361 60.1817 100.521 60.2558 100.68C60.4108 101.014 60.5659 101.347 60.7275 101.678C60.9365 102.105 61.1939 102.507 61.4978 102.881C61.5135 102.9 61.5305 102.918 61.5513 102.941C61.5619 102.952 61.5735 102.964 61.5864 102.979C62.2135 101.994 62.7648 100.984 63.252 99.9414C63.74 98.8975 64.1531 97.8273 64.5047 96.7349C64.834 95.7123 65.0726 94.6681 65.3178 93.5954C65.3339 93.5248 65.35 93.4541 65.3662 93.3833C65.3931 93.4036 65.4171 93.4207 65.4388 93.4362C65.4799 93.4655 65.5126 93.4888 65.5401 93.5169C65.667 93.6461 65.7942 93.7751 65.9214 93.9041C66.2998 94.2879 66.6783 94.6717 67.0491 95.0621C67.702 95.7495 68.2988 96.4798 68.8376 97.252C69.4015 98.06 69.8885 98.9073 70.2523 99.8155C70.2608 99.8366 70.2711 99.8571 70.2845 99.8838C70.2924 99.8995 70.3013 99.9173 70.3116 99.9385C70.5484 99.5332 70.7227 99.1272 70.855 98.7056C70.9461 98.416 71.0295 98.1242 71.1132 97.8313C71.1503 97.7015 71.1875 97.5715 71.2254 97.4414C71.2353 97.4443 71.2441 97.4462 71.2517 97.4479C71.2655 97.451 71.2758 97.4533 71.2831 97.4589C71.4018 97.5508 71.5217 97.6412 71.6416 97.7317C72.0309 98.0255 72.4203 98.3194 72.7672 98.6609C73.3207 99.206 73.7775 99.8126 74.0856 100.515C74.1295 100.615 74.1692 100.717 74.2125 100.828C74.2342 100.883 74.2568 100.941 74.2813 101.002L74.5467 100.609C74.7828 100.259 75.0146 99.9149 75.2511 99.5643C75.2603 99.574 75.269 99.5826 75.2771 99.5906C75.2927 99.606 75.3063 99.6194 75.3173 99.6344C75.3868 99.7276 75.4567 99.8206 75.5265 99.9136C75.8701 100.371 76.2137 100.828 76.5141 101.314C77.1329 102.315 77.5965 103.372 77.8276 104.516C77.9636 105.189 78.0067 105.867 77.9713 106.551C77.945 107.056 77.8211 107.543 77.6643 108.023C77.6289 108.131 77.5914 108.239 77.5539 108.347C77.5113 108.47 77.4686 108.593 77.429 108.716C77.4083 108.781 77.3786 108.834 77.338 108.879C76.2724 111.131 71.2379 113.407 67.8608 113.796C64.4599 114.187 59.5166 112.353 58.9775 110.665C58.9741 110.655 58.9716 110.644 58.9701 110.633Z" fill="#E0A714"/>
<path d="M84.4811 58.8965C84.2372 56.2144 85.5874 53.6653 87.8305 51.913C90.0778 50.1573 93.048 49.3462 95.7577 49.9973C102.75 51.6774 112 53.1251 123.115 53.1251C135.468 53.1251 146.286 51.3373 154.297 49.4374C156.947 48.8089 159.742 49.6433 161.807 51.39C163.87 53.1337 165.072 55.6673 164.742 58.3173C163.287 70.0179 161.622 87.1004 161.622 104.021C161.622 121.801 163.461 139.479 164.963 150.957C165.613 155.929 160.908 160.289 155.927 159.324C147.469 157.687 135.914 155.95 124.922 155.95C113.525 155.95 101.502 157.817 92.9536 159.506C88.1681 160.451 83.6617 156.493 84.0953 151.729C85.2495 139.052 86.8327 118.702 86.8327 102.419C86.8327 87.8881 85.5722 70.8919 84.4811 58.8965Z" stroke="#E0A714" stroke-width="3"/>
<path d="M174.622 143.223C171.185 143.223 167.68 143.442 164.296 143.785C162.915 133.464 161.139 116.964 161.139 100.403C161.139 87.3902 162.236 74.2415 163.376 64.0878C166.403 64.4008 169.694 64.5899 173.228 64.5899C185.416 64.5899 195.675 62.3413 201.968 60.5288C203.891 59.9748 205.866 61.7015 205.613 63.5301C204.411 72.2231 202.589 87.9532 202.589 103.508C202.589 119.544 204.525 135.469 205.723 143.796C205.97 145.51 204.339 147.033 202.615 146.657C196.085 145.234 185.03 143.223 174.622 143.223ZM72.3858 64.5898C77.1501 64.5898 81.6184 64.2462 85.6688 63.7199C86.5553 74.158 87.4363 87.4334 87.4363 98.9468C87.4363 113.767 85.9769 132.392 84.9267 143.872C81.2919 143.479 77.4973 143.223 73.7795 143.223C63.148 143.223 51.8177 145.321 45.3323 146.749C43.6695 147.115 42.1172 145.73 42.2744 144.104C43.1497 135.045 44.7403 116.617 44.7403 102.272C44.7403 88.9175 43.3621 72.8692 42.4657 63.8377C42.376 62.9341 42.8143 62.0457 43.6338 61.4265C44.4584 60.8034 45.5196 60.5734 46.4521 60.8635C52.0826 62.615 60.9635 64.5898 72.3858 64.5898Z" stroke="#E0A714" stroke-width="3"/>
<rect x="162.467" y="125.75" width="58.5" height="58.5" rx="29.25" fill="#2F2020"/>
<path d="M203.999 145.281L186.717 162.562L179.436 155.281L177.999 156.719L185.999 164.719L186.717 165.406L187.436 164.719L205.436 146.719L203.999 145.281Z" fill="#E0A714"/>
<rect x="162.467" y="125.75" width="58.5" height="58.5" rx="29.25" stroke="#E0A714" stroke-width="1.5"/>
</svg>
