<svg width="43" height="44" viewBox="0 0 43 44" fill="none" xmlns="http://www.w3.org/2000/svg">
<path d="M8.375 0.5V2.375H0.875V43.625H42.125V2.375H34.625V0.5H30.875V2.375H12.125V0.5H8.375ZM4.625 6.125H8.375V8H12.125V6.125H30.875V8H34.625V6.125H38.375V9.875H4.625V6.125ZM4.625 13.625H38.375V39.875H4.625V13.625ZM15.875 17.375V21.125H19.625V17.375H15.875ZM23.375 17.375V21.125H27.125V17.375H23.375ZM30.875 17.375V21.125H34.625V17.375H30.875ZM8.375 24.875V28.625H12.125V24.875H8.375ZM15.875 24.875V28.625H19.625V24.875H15.875ZM23.375 24.875V28.625H27.125V24.875H23.375ZM30.875 24.875V28.625H34.625V24.875H30.875ZM8.375 32.375V36.125H12.125V32.375H8.375ZM15.875 32.375V36.125H19.625V32.375H15.875ZM23.375 32.375V36.125H27.125V32.375H23.375Z" fill="#E0A714"/>
</svg>
