<svg width="18" height="18" viewBox="0 0 18 18" fill="none" xmlns="http://www.w3.org/2000/svg">
<path d="M3.75 0V0.75H0.75V17.25H17.25V0.75H14.25V0H12.75V0.75H5.25V0H3.75ZM2.25 2.25H3.75V3H5.25V2.25H12.75V3H14.25V2.25H15.75V3.75H2.25V2.25ZM2.25 5.25H15.75V15.75H2.25V5.25ZM6.75 6.75V8.25H8.25V6.75H6.75ZM9.75 6.75V8.25H11.25V6.75H9.75ZM12.75 6.75V8.25H14.25V6.75H12.75ZM3.75 9.75V11.25H5.25V9.75H3.75ZM6.75 9.75V11.25H8.25V9.75H6.75ZM9.75 9.75V11.25H11.25V9.75H9.75ZM12.75 9.75V11.25H14.25V9.75H12.75ZM3.75 12.75V14.25H5.25V12.75H3.75ZM6.75 12.75V14.25H8.25V12.75H6.75ZM9.75 12.75V14.25H11.25V12.75H9.75Z" fill="#111827"/>
</svg>
