<svg width="32" height="32" viewBox="0 0 32 32" fill="none" xmlns="http://www.w3.org/2000/svg">
<path d="M11.5 6L11.1875 6.40625L10 8H3V26H29V8H22L20.8125 6.40625L20.5 6H11.5ZM12.5 8H19.5L20.6875 9.59375L21 10H27V24H5V10H11L11.3125 9.59375L12.5 8ZM8 11C7.44922 11 7 11.4492 7 12C7 12.5508 7.44922 13 8 13C8.55078 13 9 12.5508 9 12C9 11.4492 8.55078 11 8 11ZM16 11C12.6992 11 10 13.6992 10 17C10 20.3008 12.6992 23 16 23C19.3008 23 22 20.3008 22 17C22 13.6992 19.3008 11 16 11ZM16 13C18.2227 13 20 14.7773 20 17C20 19.2227 18.2227 21 16 21C13.7773 21 12 19.2227 12 17C12 14.7773 13.7773 13 16 13Z" fill="white"/>
</svg>
