<svg width="49" height="38" viewBox="0 0 49 38" fill="none" xmlns="http://www.w3.org/2000/svg">
<path d="M16.0625 0.25L15.4766 1.01172L13.25 4H0.125V37.75H48.875V4H35.75L33.5234 1.01172L32.9375 0.25H16.0625ZM17.9375 4H31.0625L33.2891 6.98828L33.875 7.75H45.125V34H3.875V7.75H15.125L15.7109 6.98828L17.9375 4ZM9.5 9.625C8.46729 9.625 7.625 10.4673 7.625 11.5C7.625 12.5327 8.46729 13.375 9.5 13.375C10.5327 13.375 11.375 12.5327 11.375 11.5C11.375 10.4673 10.5327 9.625 9.5 9.625ZM24.5 9.625C18.311 9.625 13.25 14.686 13.25 20.875C13.25 27.064 18.311 32.125 24.5 32.125C30.689 32.125 35.75 27.064 35.75 20.875C35.75 14.686 30.689 9.625 24.5 9.625ZM24.5 13.375C28.6675 13.375 32 16.7075 32 20.875C32 25.0425 28.6675 28.375 24.5 28.375C20.3325 28.375 17 25.0425 17 20.875C17 16.7075 20.3325 13.375 24.5 13.375Z" fill="#E0A714"/>
</svg>
