<svg width="20" height="16" viewBox="0 0 20 16" fill="none" xmlns="http://www.w3.org/2000/svg">
<path d="M6.625 0.400391L6.39062 0.705078L5.5 1.90039H0.25V15.4004H19.75V1.90039H14.5L13.6094 0.705078L13.375 0.400391H6.625ZM7.375 1.90039H12.625L13.5156 3.0957L13.75 3.40039H18.25V13.9004H1.75V3.40039H6.25L6.48438 3.0957L7.375 1.90039ZM4 4.15039C3.58691 4.15039 3.25 4.4873 3.25 4.90039C3.25 5.31348 3.58691 5.65039 4 5.65039C4.41309 5.65039 4.75 5.31348 4.75 4.90039C4.75 4.4873 4.41309 4.15039 4 4.15039ZM10 4.15039C7.52441 4.15039 5.5 6.1748 5.5 8.65039C5.5 11.126 7.52441 13.1504 10 13.1504C12.4756 13.1504 14.5 11.126 14.5 8.65039C14.5 6.1748 12.4756 4.15039 10 4.15039ZM10 5.65039C11.667 5.65039 13 6.9834 13 8.65039C13 10.3174 11.667 11.6504 10 11.6504C8.33301 11.6504 7 10.3174 7 8.65039C7 6.9834 8.33301 5.65039 10 5.65039Z" fill="#111827"/>
</svg>
