<svg width="20" height="20" viewBox="0 0 20 20" fill="none" xmlns="http://www.w3.org/2000/svg">
<path d="M14.9689 0.173736C14.7286 0.197173 14.4825 0.261627 14.2423 0.361236V0.337798C14.2306 0.340728 14.2071 0.358306 14.1954 0.361236C12.3702 1.00284 8.87512 2.61124 5.71105 5.7753C2.52356 8.9628 0.985469 12.5224 0.296993 14.2831V14.3065C-0.00769477 15.2177 0.209102 16.205 0.812618 16.9081L0.836055 16.9315V16.955L3.08606 19.1815L3.1798 19.2753C3.8009 19.8964 4.87902 19.8964 5.50012 19.2753L8.57043 16.205C9.19152 15.5839 9.19152 14.4823 8.57043 13.8612L7.09387 12.3847C7.35168 11.8485 8.01965 10.5302 9.20324 9.29092C10.378 8.06045 11.7257 7.4335 12.2501 7.20499L13.797 8.75186L13.8673 8.79874C14.2189 9.03311 14.6202 9.16495 15.0392 9.1503C15.4318 9.13565 15.839 8.94229 16.1407 8.61124L16.1642 8.63467L16.2111 8.56436L19.2345 5.56436C19.8556 4.94327 19.8556 3.8417 19.2345 3.22061L16.9142 0.900298C16.5861 0.572173 16.1437 0.326079 15.672 0.220611C15.4435 0.170806 15.2091 0.150298 14.9689 0.173736ZM15.0861 1.67374C15.3702 1.65323 15.6544 1.77335 15.8361 1.95499L18.1798 4.2753C18.3087 4.4042 18.3087 4.35733 18.1798 4.48624L15.0392 7.62686C15.0421 7.62393 15.0392 7.64737 14.9689 7.6503C14.9103 7.65323 14.8224 7.60342 14.7345 7.55655H14.6876L12.9298 5.7753L12.5782 5.42374L12.1329 5.5878C12.1329 5.5878 9.82727 6.44913 8.10168 8.25967C6.40539 10.0351 5.47668 12.2206 5.47668 12.2206L5.28918 12.6894L5.64074 13.0644L7.51574 14.9394C7.64465 15.0683 7.64465 15.0214 7.51574 15.1503L4.44543 18.2206C4.31652 18.3495 4.3634 18.3495 4.23449 18.2206L1.93762 15.9472C1.93176 15.9413 1.94348 15.9296 1.93762 15.9237L1.91418 15.9003C1.65344 15.5751 1.57434 15.2294 1.70324 14.8222C1.70617 14.8134 1.70031 14.8075 1.70324 14.7987C2.36828 13.1054 3.83313 9.78604 6.78918 6.82999C9.75695 3.86221 13.1232 2.33585 14.7579 1.76749L14.7814 1.74405H14.8048C14.8956 1.70303 14.9923 1.6796 15.0861 1.67374Z" fill="#111827"/>
</svg>
