<svg width="16" height="18" viewBox="0 0 16 18" fill="none" xmlns="http://www.w3.org/2000/svg">
<path d="M8.59912 0.292969L6.35205 4.04004L4.96484 2.6543L4.4375 3.25342C1.82525 6.21442 0.5 8.90475 0.5 11.25C0.5 14.9715 3.8645 18 8 18C12.1355 18 15.5 14.9715 15.5 11.25C15.5 7.6785 11.6023 3.27455 9.27881 0.966797L8.59912 0.292969ZM8.89355 2.71729C10.8256 4.73179 14 8.466 14 11.25C14 13.0434 12.9652 14.6282 11.3926 15.5757C11.6165 15.0406 11.75 14.4506 11.75 13.8223C11.75 12.0365 10.4865 9.91829 9.42676 8.45654L8.79395 7.58203L7.13281 10.0737L6.07812 9.01904L5.58301 9.83643C4.69876 11.2959 4.25 12.6365 4.25 13.8223C4.25 14.4506 4.38349 15.0406 4.60742 15.5757C3.0348 14.6282 2 13.0434 2 11.25C2 9.45825 3.04823 7.25753 5.04248 4.85303L6.64795 6.45996L8.89355 2.71729ZM8.82764 10.2363C9.75014 11.6741 10.25 12.9253 10.25 13.8223C10.25 15.299 9.2405 16.5 8 16.5C6.7595 16.5 5.75 15.299 5.75 13.8223C5.75 13.1308 5.96768 12.3392 6.39893 11.4609L7.36719 12.4277L8.82764 10.2363Z" fill="#111827"/>
</svg>
