<svg width="39" height="45" viewBox="0 0 39 45" fill="none" xmlns="http://www.w3.org/2000/svg">
<path d="M20.9978 0.232422L15.3801 9.6001L11.9121 6.13574L10.5938 7.63354C4.06312 15.036 0.75 21.7619 0.75 27.625C0.75 36.9287 9.16125 44.5 19.5 44.5C29.8387 44.5 38.25 36.9287 38.25 27.625C38.25 18.6962 28.5058 7.68637 22.697 1.91699L20.9978 0.232422ZM21.7339 6.29321C26.5639 11.3295 34.5 20.665 34.5 27.625C34.5 32.1085 31.913 36.0706 27.9814 38.4392C28.5413 37.1014 28.875 35.6265 28.875 34.0557C28.875 29.5913 25.7163 24.2957 23.0669 20.6414L21.4849 18.4551L17.332 24.6843L14.6953 22.0476L13.4575 24.0911C11.2469 27.7398 10.125 31.0913 10.125 34.0557C10.125 35.6265 10.4587 37.1014 11.0186 38.4392C7.087 36.0706 4.5 32.1085 4.5 27.625C4.5 23.1456 7.12058 17.6438 12.1062 11.6326L16.1199 15.6499L21.7339 6.29321ZM21.5691 25.0908C23.8753 28.6852 25.125 31.8132 25.125 34.0557C25.125 37.7475 22.6012 40.75 19.5 40.75C16.3988 40.75 13.875 37.7475 13.875 34.0557C13.875 32.3269 14.4192 30.348 15.4973 28.1523L17.918 30.5693L21.5691 25.0908Z" fill="#E0A714"/>
</svg>
