<svg width="45" height="43" viewBox="0 0 45 43" fill="none" xmlns="http://www.w3.org/2000/svg">
<path d="M11.7773 0.902344L5.625 7.05469L3.22266 4.65234L0.527344 7.34766L4.27734 11.0977L5.625 12.3867L6.97266 11.0977L14.4727 3.59766L11.7773 0.902344ZM20.625 4.125V7.875H45V4.125H20.625ZM11.7773 15.9023L5.625 22.0547L3.22266 19.6523L0.527344 22.3477L4.27734 26.0977L5.625 27.3867L6.97266 26.0977L14.4727 18.5977L11.7773 15.9023ZM20.625 19.125V22.875H45V19.125H20.625ZM11.7773 30.9023L5.625 37.0547L3.22266 34.6523L0.527344 37.3477L4.27734 41.0977L5.625 42.3867L6.97266 41.0977L14.4727 33.5977L11.7773 30.9023ZM20.625 34.125V37.875H45V34.125H20.625Z" fill="#E0A714"/>
</svg>
