<svg width="120" height="120" viewBox="0 0 120 120" fill="none" xmlns="http://www.w3.org/2000/svg">
<g clip-path="url(#clip0_2202_33544)">
<path d="M22.5 50H77.5C78.163 50 78.7989 49.7366 79.2678 49.2678C79.7366 48.7989 80 48.163 80 47.5C80 46.837 79.7366 46.2011 79.2678 45.7322C78.7989 45.2634 78.163 45 77.5 45H22.5C21.837 45 21.2011 45.2634 20.7322 45.7322C20.2634 46.2011 20 46.837 20 47.5C20 48.163 20.2634 48.7989 20.7322 49.2678C21.2011 49.7366 21.837 50 22.5 50ZM62.5 57.5H22.5C21.837 57.5 21.2011 57.7634 20.7322 58.2322C20.2634 58.7011 20 59.337 20 60C20 60.663 20.2634 61.2989 20.7322 61.7678C21.2011 62.2366 21.837 62.5 22.5 62.5H62.5C63.163 62.5 63.7989 62.2366 64.2678 61.7678C64.7366 61.2989 65 60.663 65 60C65 59.337 64.7366 58.7011 64.2678 58.2322C63.7989 57.7634 63.163 57.5 62.5 57.5ZM22.5 37.5H77.5C78.163 37.5 78.7989 37.2366 79.2678 36.7678C79.7366 36.2989 80 35.663 80 35C80 34.337 79.7366 33.7011 79.2678 33.2322C78.7989 32.7634 78.163 32.5 77.5 32.5H22.5C21.837 32.5 21.2011 32.7634 20.7322 33.2322C20.2634 33.7011 20 34.337 20 35C20 35.663 20.2634 36.2989 20.7322 36.7678C21.2011 37.2366 21.837 37.5 22.5 37.5ZM22.5 25H77.5C78.163 25 78.7989 24.7366 79.2678 24.2678C79.7366 23.7989 80 23.163 80 22.5C80 21.837 79.7366 21.2011 79.2678 20.7322C78.7989 20.2634 78.163 20 77.5 20H22.5C21.837 20 21.2011 20.2634 20.7322 20.7322C20.2634 21.2011 20 21.837 20 22.5C20 23.163 20.2634 23.7989 20.7322 24.2678C21.2011 24.7366 21.837 25 22.5 25ZM57.5 100C56.2 100 55.15 95 50.5 95C45.85 95 44.775 100 43.475 100C42.175 100 41.15 95 36.5 95C31.85 95 30.775 100 29.5 100C28.225 100 27.175 95 22.5 95C21.837 95 21.2011 95.2634 20.7322 95.7322C20.2634 96.2011 20 96.837 20 97.5C20 98.163 20.2634 98.7989 20.7322 99.2678C21.2011 99.7366 21.837 100 22.5 100C23.8 100 24.825 105 29.5 105C34.175 105 35.2 100 36.5 100C37.8 100 38.825 105 43.475 105C48.125 105 49.2 100 50.5 100C51.8 100 52.825 105 57.5 105C58.163 105 58.7989 104.737 59.2678 104.268C59.7366 103.799 60 103.163 60 102.5C60 101.837 59.7366 101.201 59.2678 100.732C58.7989 100.263 58.163 100 57.5 100Z" fill="#E0A714"/>
<path d="M112.5 25C113.163 25 113.799 24.7366 114.268 24.2678C114.737 23.7989 115 23.163 115 22.5V12.5C115 9.18479 113.683 6.00537 111.339 3.66117C108.995 1.31696 105.815 0 102.5 0L17.5 0C14.1848 0 11.0054 1.31696 8.66117 3.66117C6.31696 6.00537 5 9.18479 5 12.5V117.5C5 118.163 5.26339 118.799 5.73223 119.268C6.20107 119.737 6.83696 120 7.5 120H92.5C93.163 120 93.7989 119.737 94.2678 119.268C94.7366 118.799 95 118.163 95 117.5V77.5L113.825 45C114.432 44.004 114.833 42.8968 115.005 41.7434C115.178 40.5901 115.118 39.4139 114.829 38.284C114.541 37.1541 114.029 36.0933 113.325 35.1639C112.621 34.2345 111.738 33.4553 110.728 32.8721C109.718 32.2888 108.602 31.9134 107.445 31.7677C106.288 31.622 105.113 31.7091 103.99 32.0238C102.867 32.3385 101.819 32.8745 100.906 33.6002C99.9931 34.326 99.2346 35.2269 98.675 36.25L95 42.5V25H112.5ZM110 12.5V20H95V12.5C95 10.5109 95.7902 8.60322 97.1967 7.1967C98.6032 5.79018 100.511 5 102.5 5C104.489 5 106.397 5.79018 107.803 7.1967C109.21 8.60322 110 10.5109 110 12.5ZM90 115H10V12.5C10 10.5109 10.7902 8.60322 12.1967 7.1967C13.6032 5.79018 15.5109 5 17.5 5H92.5C89.025 9.55 90 9.05 90 51.075L70.55 84.775C70.125 85.5 70.3 84.775 69.375 99.775C69.3545 100.116 69.404 100.457 69.5205 100.778C69.6369 101.099 69.8178 101.392 70.052 101.641C70.2862 101.889 70.5688 102.087 70.8823 102.221C71.1959 102.356 71.5337 102.426 71.875 102.425C72.95 102.425 72.425 102.425 84.925 94.3C85.575 93.875 85.325 94.125 89.925 86.025L90 115ZM75 88.1C77.1528 88.4138 79.1034 89.5412 80.45 91.25L74.575 95.125L75 88.1ZM83.5 87.15C81.733 85.3086 79.4786 84.008 77 83.4L97.275 48.4L103.775 52.15L83.5 87.15ZM103 38.55C103.497 37.688 104.317 37.0589 105.278 36.8011C106.239 36.5432 107.263 36.6777 108.125 37.175C108.987 37.6723 109.616 38.4916 109.874 39.4527C110.132 40.4139 109.997 41.438 109.5 42.3L106.375 47.725L100 43.975L103 38.55Z" fill="#E0A714"/>
</g>
<defs>
<clipPath id="clip0_2202_33544">
<rect width="120" height="120" fill="white"/>
</clipPath>
</defs>
</svg>
