<svg width="73" height="61" viewBox="0 0 73 61" fill="none" xmlns="http://www.w3.org/2000/svg">
<path d="M40.5589 45.1519C40.1499 45.1494 39.749 45.037 39.3983 44.8266C39.0475 44.6161 38.7597 44.3153 38.565 43.9555L33.0818 34.1256C33.0545 34.0723 33.0131 34.0275 32.9622 33.996L23.1322 28.5426C22.7425 28.3238 22.4244 27.9968 22.2166 27.6011C22.0088 27.2054 21.9201 26.7579 21.9612 26.3129C22.0024 25.8678 22.1716 25.4442 22.4484 25.0933C22.7252 24.7423 23.0978 24.4791 23.521 24.3355L47.9962 16.1605C48.4046 16.0227 48.8433 16.0017 49.263 16.1C49.6826 16.1982 50.0665 16.4117 50.3712 16.7165C50.676 17.0213 50.8895 17.4051 50.9878 17.8248C51.086 18.2444 51.0651 18.6831 50.9272 19.0915L42.7522 43.5667C42.6122 43.9966 42.3482 44.3755 41.9934 44.6557C41.6387 44.936 41.209 45.1051 40.7583 45.1419L40.5589 45.1519ZM48.6243 18.0447L24.1591 26.2098C24.0981 26.2276 24.0439 26.2631 24.0033 26.3119C23.9627 26.3607 23.9375 26.4206 23.9311 26.4837C23.9247 26.5469 23.9373 26.6105 23.9672 26.6665C23.9972 26.7225 24.0431 26.7683 24.0993 26.798L33.9292 32.2613C34.3064 32.4704 34.6173 32.7813 34.8265 33.1585L40.2898 42.9885C40.3179 43.0448 40.3625 43.0913 40.4178 43.1216C40.473 43.1519 40.5362 43.1646 40.5988 43.1579C40.6623 43.1545 40.7231 43.1316 40.773 43.0924C40.823 43.0531 40.8596 42.9994 40.878 42.9386L49.043 18.4535C49.0632 18.3968 49.0663 18.3355 49.0522 18.2771C49.038 18.2186 49.0071 18.1656 48.9633 18.1245C48.9214 18.0816 48.8684 18.0515 48.8102 18.0374C48.752 18.0233 48.6911 18.0258 48.6343 18.0447H48.6243Z" fill="#FFFFFF"/>
<path d="M48.9566 16.7182L33.0317 32.6431L34.4416 34.053L50.3665 18.1281L48.9566 16.7182Z" fill="#FFFFFF"/>
</svg>
