<svg width="53" height="38" viewBox="0 0 53 38" fill="none" xmlns="http://www.w3.org/2000/svg">
<path d="M5.875 0.25C2.7915 0.25 0.25 2.7915 0.25 5.875V32.125C0.25 35.2085 2.7915 37.75 5.875 37.75H47.125C50.2085 37.75 52.75 35.2085 52.75 32.125V5.875C52.75 2.7915 50.2085 0.25 47.125 0.25H5.875ZM5.875 4H47.125C48.187 4 49 4.81299 49 5.875V32.125C49 33.187 48.187 34 47.125 34H5.875C4.81299 34 4 33.187 4 32.125V5.875C4 4.81299 4.81299 4 5.875 4ZM17.125 7.75C13.0015 7.75 9.625 11.1265 9.625 15.25C9.625 17.3374 10.5186 19.2197 11.9102 20.582C9.4126 22.2739 7.75 25.1523 7.75 28.375H11.5C11.5 25.2476 13.9976 22.75 17.125 22.75C20.2524 22.75 22.75 25.2476 22.75 28.375H26.5C26.5 25.1523 24.8374 22.2739 22.3398 20.582C23.7314 19.2197 24.625 17.3374 24.625 15.25C24.625 11.1265 21.2485 7.75 17.125 7.75ZM30.25 9.625V13.375H45.25V9.625H30.25ZM17.125 11.5C19.2197 11.5 20.875 13.1553 20.875 15.25C20.875 17.3447 19.2197 19 17.125 19C15.0303 19 13.375 17.3447 13.375 15.25C13.375 13.1553 15.0303 11.5 17.125 11.5ZM30.25 17.125V20.875H45.25V17.125H30.25ZM30.25 24.625V28.375H39.625V24.625H30.25Z" fill="#E0A714"/>
</svg>
