<svg width="13" height="15" viewBox="0 0 13 15" fill="none" xmlns="http://www.w3.org/2000/svg">
<path d="M6.5 0.473938C4.09033 0.473938 2.125 2.43927 2.125 4.84894C2.125 6.35529 2.89404 7.69318 4.05859 8.48175C1.82959 9.43878 0.25 11.6507 0.25 14.2239H1.5C1.5 11.4554 3.73145 9.22394 6.5 9.22394C9.26855 9.22394 11.5 11.4554 11.5 14.2239H12.75C12.75 11.6507 11.1704 9.43878 8.94141 8.48175C10.106 7.69318 10.875 6.35529 10.875 4.84894C10.875 2.43927 8.90967 0.473938 6.5 0.473938ZM6.5 1.72394C8.2334 1.72394 9.625 3.11554 9.625 4.84894C9.625 6.58234 8.2334 7.97394 6.5 7.97394C4.7666 7.97394 3.375 6.58234 3.375 4.84894C3.375 3.11554 4.7666 1.72394 6.5 1.72394Z" fill="#4B5563"/>
</svg>
