<svg width="24" height="24" viewBox="0 0 24 24" fill="none" xmlns="http://www.w3.org/2000/svg">
<path d="M18.5156 3.02344C17.8887 3.02344 17.2793 3.27539 16.8047 3.75L16.7344 3.82031L16.2656 3.375L3.89062 15.75L3.84375 15.9844L3.02344 20.1094L2.78906 21.2109L3.89062 20.9766L8.01562 20.1562L8.25 20.1094L20.625 7.73438L20.1797 7.28906L20.2266 7.24219L20.25 7.19531C21.1992 6.24609 21.1992 4.69922 20.25 3.75C19.7754 3.27539 19.1426 3.02344 18.5156 3.02344ZM18.5156 4.5C18.75 4.5 18.9961 4.60547 19.1953 4.80469C19.5967 5.20605 19.5967 5.73926 19.1953 6.14062L19.125 6.21094L17.7891 4.875L17.8594 4.80469C18.0586 4.60547 18.2812 4.5 18.5156 4.5ZM16.2891 5.48438L18.5156 7.71094L17.4375 8.8125L15.1875 6.5625L16.2891 5.48438ZM14.1562 7.64062L16.3594 9.84375L8.53125 17.6953L8.22656 16.3359L8.13281 15.8672L7.66406 15.7734L6.30469 15.4688L14.1562 7.64062ZM5.22656 16.7578L6.86719 17.1328L7.24219 18.7734L5.71875 19.0781L4.92188 18.2812L5.22656 16.7578Z" fill="white"/>
</svg>
