<svg width="61" height="60" viewBox="0 0 61 60" fill="none" xmlns="http://www.w3.org/2000/svg">
<path d="M20.5784 8L16.5337 14.7717L14.0367 12.2674L13.0875 13.3501C8.38545 18.7012 6 23.5631 6 27.8015C6 34.5269 12.0561 40 19.5 40C26.9439 40 33 34.5269 33 27.8015C33 21.3471 25.9842 13.3883 21.8019 9.21774L20.5784 8ZM21.1084 12.3812C24.586 16.0218 30.3 22.7702 30.3 27.8015C30.3 31.0425 28.4374 33.9066 25.6066 35.6188C26.0097 34.6517 26.25 33.5856 26.25 32.45C26.25 29.2228 23.9757 25.3948 22.0682 22.7531L20.9291 21.1727L17.9391 25.6757L16.0406 23.7697L15.1494 25.2469C13.5578 27.8845 12.75 30.3072 12.75 32.45C12.75 33.5856 12.9903 34.6517 13.3934 35.6188C10.5626 33.9066 8.7 31.0425 8.7 27.8015C8.7 24.5634 10.5868 20.5863 14.1765 16.2409L17.0663 19.1449L21.1084 12.3812ZM20.9897 25.9696C22.6502 28.5678 23.55 30.829 23.55 32.45C23.55 35.1188 21.7329 37.2892 19.5 37.2892C17.2671 37.2892 15.45 35.1188 15.45 32.45C15.45 31.2004 15.8418 29.7698 16.6181 28.1827L18.3609 29.9298L20.9897 25.9696Z" fill="#E0A714"/>
<path d="M46.9583 15C44.6424 15 42.5435 15.4339 40.9036 16.2513C39.2638 17.0687 37.9167 18.4007 37.9167 20.1667V25.3333C37.9167 25.4998 37.9722 25.6613 37.9974 25.8177C36.7966 25.5049 35.4645 25.3333 34.0417 25.3333C31.7257 25.3333 29.6268 25.7673 27.987 26.5846C26.3472 27.402 25 28.734 25 30.5V40.8333C25 42.5993 26.3472 43.9313 27.987 44.7487C29.6268 45.5661 31.7257 46 34.0417 46C36.3576 46 38.4565 45.5661 40.0964 44.7487C41.7362 43.9313 43.0833 42.5993 43.0833 40.8333V40.3086C44.269 40.6214 45.5658 40.8333 46.9583 40.8333C49.2743 40.8333 51.3732 40.3994 53.013 39.582C54.6528 38.7646 56 37.4326 56 35.6667V20.1667C56 18.4007 54.6528 17.0687 53.013 16.2513C51.3732 15.4339 49.2743 15 46.9583 15ZM46.9583 17.5833C48.9261 17.5833 50.6769 18.0072 51.8424 18.5924C53.008 19.1777 53.4167 19.7933 53.4167 20.1667C53.4167 20.54 53.008 21.1556 51.8424 21.7409C50.6769 22.3262 48.9261 22.75 46.9583 22.75C44.9906 22.75 43.2397 22.3262 42.0742 21.7409C40.9087 21.1556 40.5 20.54 40.5 20.1667C40.5 19.7933 40.9087 19.1777 42.0742 18.5924C43.2397 18.0072 44.9906 17.5833 46.9583 17.5833ZM40.5 23.8398C40.6362 23.9155 40.7624 24.0114 40.9036 24.082C42.5435 24.8994 44.6424 25.3333 46.9583 25.3333C49.2743 25.3333 51.3732 24.8994 53.013 24.082C53.1543 24.0114 53.2804 23.9155 53.4167 23.8398V25.3333C53.4167 25.7067 53.008 26.3223 51.8424 26.9076C50.6769 27.4928 48.9261 27.9167 46.9583 27.9167C44.9906 27.9167 43.2397 27.4928 42.0742 26.9076C40.9087 26.3223 40.5 25.7067 40.5 25.3333V23.8398ZM34.0417 27.9167C36.0094 27.9167 37.7603 28.3405 38.9258 28.9258C40.0913 29.5111 40.5 30.1266 40.5 30.5C40.5 30.8734 40.0913 31.4889 38.9258 32.0742C37.7603 32.6595 36.0094 33.0833 34.0417 33.0833C32.0739 33.0833 30.3231 32.6595 29.1576 32.0742C27.992 31.4889 27.5833 30.8734 27.5833 30.5C27.5833 30.1266 27.992 29.5111 29.1576 28.9258C30.3231 28.3405 32.0739 27.9167 34.0417 27.9167ZM53.4167 29.0065V30.5C53.4167 30.8734 53.008 31.4889 51.8424 32.0742C50.6769 32.6595 48.9261 33.0833 46.9583 33.0833C45.4901 33.0833 44.1631 32.8411 43.0833 32.4779V30.5C43.0833 30.3335 43.0278 30.172 43.0026 30.0156C44.2035 30.3285 45.5355 30.5 46.9583 30.5C49.2743 30.5 51.3732 30.0661 53.013 29.2487C53.1543 29.1781 53.2804 29.0822 53.4167 29.0065ZM27.5833 34.1732C27.7196 34.2489 27.8457 34.3447 27.987 34.4154C29.6268 35.2327 31.7257 35.6667 34.0417 35.6667C36.3576 35.6667 38.4565 35.2327 40.0964 34.4154C40.2376 34.3447 40.3638 34.2489 40.5 34.1732V35.6667C40.5 36.04 40.0913 36.6556 38.9258 37.2409C37.7603 37.8262 36.0094 38.25 34.0417 38.25C32.0739 38.25 30.3231 37.8262 29.1576 37.2409C27.992 36.6556 27.5833 36.04 27.5833 35.6667V34.1732ZM53.4167 34.1732V35.6667C53.4167 36.04 53.008 36.6556 51.8424 37.2409C50.6769 37.8262 48.9261 38.25 46.9583 38.25C45.4901 38.25 44.1631 38.0431 43.0833 37.6849V35.1823C44.269 35.4951 45.5607 35.6667 46.9583 35.6667C49.2743 35.6667 51.3732 35.2327 53.013 34.4154C53.1543 34.3447 53.2804 34.2489 53.4167 34.1732ZM27.5833 39.3398C27.7196 39.4155 27.8457 39.5114 27.987 39.582C29.6268 40.3994 31.7257 40.8333 34.0417 40.8333C36.3576 40.8333 38.4565 40.3994 40.0964 39.582C40.2376 39.5114 40.3638 39.4155 40.5 39.3398V40.8333C40.5 41.2067 40.0913 41.8223 38.9258 42.4076C37.7603 42.9928 36.0094 43.4167 34.0417 43.4167C32.0739 43.4167 30.3231 42.9928 29.1576 42.4076C27.992 41.8223 27.5833 41.2067 27.5833 40.8333V39.3398Z" fill="#E0A714"/>
</svg>
