<svg width="51" height="26" viewBox="0 0 51 26" fill="none" xmlns="http://www.w3.org/2000/svg">
<path d="M25.5 0C11.9541 0 1.53125 11.9336 1.53125 11.9336L0.566406 13L1.53125 14.0664C1.53125 14.0664 11.0337 24.9019 23.6719 25.8984C24.2749 25.9746 24.8779 26 25.5 26C26.1221 26 26.7251 25.9746 27.3281 25.8984C39.9663 24.9019 49.4688 14.0664 49.4688 14.0664L50.4336 13L49.4688 11.9336C49.4688 11.9336 39.0459 0 25.5 0ZM25.5 3.25C29.0801 3.25 32.3809 4.22754 35.25 5.53516C36.2847 7.24902 36.875 9.22314 36.875 11.375C36.875 17.2466 32.4697 22.0708 26.7695 22.6992C26.7378 22.7056 26.6997 22.6929 26.668 22.6992C26.2808 22.7183 25.8936 22.75 25.5 22.75C25.0684 22.75 24.6494 22.7246 24.2305 22.6992C18.5303 22.0708 14.125 17.2466 14.125 11.375C14.125 9.25488 14.6963 7.28076 15.6992 5.58594H15.6484C18.543 4.25293 21.8818 3.25 25.5 3.25ZM25.5 6.5C22.8086 6.5 20.625 8.68359 20.625 11.375C20.625 14.0664 22.8086 16.25 25.5 16.25C28.1914 16.25 30.375 14.0664 30.375 11.375C30.375 8.68359 28.1914 6.5 25.5 6.5ZM11.2812 8.02344C11.0273 9.11523 10.875 10.2134 10.875 11.375C10.875 14.2251 11.6875 16.8911 13.1094 19.1445C9.01514 16.7769 6.17139 13.9521 5.23828 13C6.01904 12.2002 8.19629 10.0801 11.2812 8.02344ZM39.7188 8.02344C42.8037 10.0801 44.981 12.2002 45.7617 13C44.8286 13.9521 41.9849 16.7769 37.8906 19.1445C39.3125 16.8911 40.125 14.2251 40.125 11.375C40.125 10.2134 39.9727 9.10254 39.7188 8.02344Z" fill="white"/>
</svg>
