<svg width="19" height="36" viewBox="0 0 19 36" fill="none" xmlns="http://www.w3.org/2000/svg">
<path d="M9.5 0.5C6.75098 0.5 4.5 2.75098 4.5 5.5C4.5 6.91113 5.11035 8.18066 6.0625 9.09375C5.76465 9.30859 5.49121 9.5332 5.24219 9.79688C4.19238 10.9102 3.53809 12.3945 3.25 14.0156H3.28906L0.789062 26.5156L0.476562 28H5.75V35.5H8.25V28H10.75V35.5H13.25V28H18.5234L18.2109 26.5156L15.7109 14.0156C15.4229 12.4727 14.7979 11.0029 13.7578 9.875C13.499 9.5918 13.2109 9.32324 12.8984 9.09375C13.8652 8.18066 14.5 6.9209 14.5 5.5C14.5 2.75098 12.249 0.5 9.5 0.5ZM9.5 3C10.8965 3 12 4.10352 12 5.5C12 6.89648 10.8965 8 9.5 8C8.10352 8 7 6.89648 7 5.5C7 4.10352 8.10352 3 9.5 3ZM9.5 10.5C10.5352 10.5 11.2773 10.8955 11.9219 11.5938C12.5664 12.292 13.0742 13.3271 13.2891 14.4844L15.4766 25.5H3.52344L5.71094 14.4844H5.75C5.96973 13.2344 6.44824 12.1846 7.07812 11.5156C7.70801 10.8467 8.44043 10.5 9.5 10.5Z" fill="white"/>
</svg>
