<svg width="71" height="61" viewBox="0 0 71 61" fill="none" xmlns="http://www.w3.org/2000/svg">
<path d="M21.6447 34.6604C22.1757 34.6604 22.6062 34.2299 22.6062 33.6989C22.6062 33.1678 22.1757 32.7373 21.6447 32.7373C21.1136 32.7373 20.6831 33.1678 20.6831 33.6989C20.6831 34.2299 21.1136 34.6604 21.6447 34.6604Z" stroke="#FFFFFF" stroke-width="1.74798" stroke-linecap="round" stroke-linejoin="round"/>
<path d="M41.8377 27.9293C39.7222 27.3524 37.4145 26.9678 35.1067 26.9678C32.7989 26.9678 30.4912 27.3524 28.3757 27.9293" stroke="#FFFFFF" stroke-width="1.74798" stroke-linecap="round" stroke-linejoin="round"/>
<path d="M35.1067 23.1216C30.6835 23.1216 26.4526 24.2755 22.7987 26.7755C21.6448 25.6217 20.2986 25.0447 18.7601 25.0447C18.7601 26.3909 19.3371 27.7371 20.2986 28.891C18.7601 30.4295 17.6062 32.5449 17.2216 34.6604H15.8754C14.3369 34.6604 12.9907 36.0066 12.9907 37.5451C12.9907 39.2759 13.9523 41.0067 15.4908 41.9683L22.6064 46.3915V51.9686H26.4526L27.9912 48.8915C32.6067 50.2377 37.6068 50.2377 42.2223 48.8915L43.7608 51.9686H47.6071V46.3915C51.0687 44.276 53.1842 40.6221 53.3765 36.5835C53.3765 29.0833 45.107 23.1216 35.1067 23.1216Z" stroke="#FFFFFF" stroke-width="1.74798" stroke-linecap="round" stroke-linejoin="round"/>
<path d="M52.4149 32.3526C54.3381 30.4295 55.2996 27.7371 55.2996 25.0447C55.2996 23.8908 54.5304 23.1216 53.3765 23.1216C52.2226 23.1216 51.4534 23.8908 51.4534 25.0447C51.4534 26.9678 54.1458 28.891 57.2228 28.891" stroke="#FFFFFF" stroke-width="1.74798" stroke-linecap="round" stroke-linejoin="round"/>
<path d="M41.8378 19.2751C45.0241 19.2751 47.6072 16.6921 47.6072 13.5057C47.6072 10.3194 45.0241 7.73633 41.8378 7.73633C38.6514 7.73633 36.0684 10.3194 36.0684 13.5057C36.0684 16.6921 38.6514 19.2751 41.8378 19.2751Z" stroke="#FFFFFF" stroke-width="1.74798" stroke-linecap="round" stroke-linejoin="round"/>
<path d="M36.4528 11.5825H36.0682C32.7989 11.5825 30.2988 14.0826 30.2988 17.3519C30.2988 20.6212 32.7989 23.1213 36.0682 23.1213C38.5683 23.1213 40.6837 21.5828 41.453 19.275" stroke="#FFFFFF" stroke-width="1.74798" stroke-linecap="round" stroke-linejoin="round"/>
<path d="M41.8376 11.5825V15.4288" stroke="#FFFFFF" stroke-width="1.74798" stroke-linecap="round" stroke-linejoin="round"/>
<path d="M36.0684 19.275V15.4287" stroke="#FFFFFF" stroke-width="1.74798" stroke-linecap="round" stroke-linejoin="round"/>
</svg>
