<svg width="12" height="22" viewBox="0 0 12 22" fill="none" xmlns="http://www.w3.org/2000/svg">
<path d="M6 0.5C4.35059 0.5 3 1.85059 3 3.5C3 4.34668 3.36621 5.1084 3.9375 5.65625C3.75879 5.78516 3.59473 5.91992 3.44531 6.07812C2.81543 6.74609 2.42285 7.63672 2.25 8.60938H2.27344L0.773438 16.1094L0.585938 17H3.75V21.5H5.25V17H6.75V21.5H8.25V17H11.4141L11.2266 16.1094L9.72656 8.60938C9.55371 7.68359 9.17871 6.80176 8.55469 6.125C8.39941 5.95508 8.22656 5.79395 8.03906 5.65625C8.61914 5.1084 9 4.35254 9 3.5C9 1.85059 7.64941 0.5 6 0.5ZM6 2C6.83789 2 7.5 2.66211 7.5 3.5C7.5 4.33789 6.83789 5 6 5C5.16211 5 4.5 4.33789 4.5 3.5C4.5 2.66211 5.16211 2 6 2ZM6 6.5C6.62109 6.5 7.06641 6.7373 7.45312 7.15625C7.83984 7.5752 8.14453 8.19629 8.27344 8.89062L9.58594 15.5H2.41406L3.72656 8.89062H3.75C3.88184 8.14062 4.16895 7.51074 4.54688 7.10938C4.9248 6.70801 5.36426 6.5 6 6.5Z" fill="#111827"/>
</svg>
