<svg width="129" height="60" viewBox="0 0 129 60" fill="none" xmlns="http://www.w3.org/2000/svg">
<path d="M30.5 3.75C26.3765 3.75 23 7.12646 23 11.25C23 13.2495 23.813 15.0586 25.1094 16.4062C21.6377 18.3252 19.25 22.0239 19.25 26.25V36.3867L19.7773 36.9727L23 40.1953V56.25H26.75V38.6133L26.2227 38.0273L23 34.8047V26.25C23 22.0898 26.3398 18.75 30.5 18.75C34.6602 18.75 38 22.0898 38 26.25V34.8047L34.7773 38.0273L34.25 38.6133V56.25H38V40.1953L41.2227 36.9727L41.75 36.3867V26.25C41.75 22.0239 39.3623 18.3252 35.8906 16.4062C37.187 15.0586 38 13.2495 38 11.25C38 7.12646 34.6235 3.75 30.5 3.75ZM30.5 7.5C32.5947 7.5 34.25 9.15527 34.25 11.25C34.25 13.3447 32.5947 15 30.5 15C28.4053 15 26.75 13.3447 26.75 11.25C26.75 9.15527 28.4053 7.5 30.5 7.5Z" fill="#E0A714"/>
<path d="M98.5 3.75C94.3765 3.75 91 7.12646 91 11.25C91 13.3667 91.9155 15.271 93.3438 16.6406C92.897 16.9629 92.4868 17.2998 92.1133 17.6953C90.5386 19.3652 89.5571 21.5918 89.125 24.0234H89.1836L85.4336 42.7734L84.9648 45H92.875V56.25H96.625V45H100.375V56.25H104.125V45H112.035L111.566 42.7734L107.816 24.0234C107.384 21.709 106.447 19.5044 104.887 17.8125C104.499 17.3877 104.066 16.9849 103.598 16.6406C105.048 15.271 106 13.3813 106 11.25C106 7.12646 102.624 3.75 98.5 3.75ZM98.5 7.5C100.595 7.5 102.25 9.15527 102.25 11.25C102.25 13.3447 100.595 15 98.5 15C96.4053 15 94.75 13.3447 94.75 11.25C94.75 9.15527 96.4053 7.5 98.5 7.5ZM98.5 18.75C100.053 18.75 101.166 19.3433 102.133 20.3906C103.1 21.438 103.861 22.9907 104.184 24.7266L107.465 41.25H89.5352L92.8164 24.7266H92.875C93.2046 22.8516 93.9224 21.2769 94.8672 20.2734C95.812 19.27 96.9106 18.75 98.5 18.75Z" fill="#E0A714"/>
</svg>
