<svg width="45" height="44" viewBox="0 0 45 44" fill="none" xmlns="http://www.w3.org/2000/svg">
<path d="M43.8161 18.3889H22.9703V26.5319H34.9059C34.3709 29.2041 32.8029 31.4611 30.4785 32.9958C28.4862 34.2958 25.9588 35.0903 22.9703 35.0903C17.1962 35.0903 12.3076 31.2805 10.5551 26.1347C10.0939 24.8347 9.85411 23.4444 9.85411 22C9.85411 20.5555 10.1124 19.1653 10.5551 17.8653C12.3076 12.7194 17.1962 8.9097 22.9703 8.9097C26.2356 8.9097 29.1503 10.0111 31.4562 12.1597L37.7653 5.9847C33.9466 2.48192 28.9473 0.333313 22.9703 0.333313C14.3184 0.333313 6.84716 5.20831 3.21299 12.2861C1.70029 15.2111 0.833252 18.4972 0.833252 22C0.833252 25.5028 1.70029 28.7889 3.21299 31.7139C6.84716 38.7916 14.3184 43.6666 22.9703 43.6666C28.9473 43.6666 33.9466 41.7167 37.5993 38.4125C41.7684 34.6389 44.1666 29.0778 44.1666 22.4875C44.1666 21.0611 44.0375 19.7069 43.8161 18.3889Z" fill="white"/>
</svg>
