<svg width="24" height="24" viewBox="0 0 24 24" fill="none" xmlns="http://www.w3.org/2000/svg">
<path fill-rule="evenodd" clip-rule="evenodd" d="M14.1732 2.84478C13.7591 2.51349 13.2246 2.41356 12.6984 2.53497L12.6959 2.53559C11.9521 2.72154 11.402 3.44002 11.402 4.25622V4.35686C11.1046 4.26341 10.78 4.25028 10.4699 4.31554L10.4655 4.31662C9.70046 4.50271 9.1707 5.22314 9.1707 6.03747V13.2805L7.72536 11.5651L7.72454 11.5642C7.10997 10.8472 6.04367 10.7444 5.30596 11.3592L5.30537 11.3597C4.9164 11.6872 4.68945 12.1602 4.68945 12.675C4.68945 12.9854 4.77276 13.3092 4.96886 13.6821C5.53528 14.7958 6.21417 15.8142 6.8502 16.7682L6.85142 16.7701C6.91757 16.874 6.98359 16.973 7.04862 17.0705L7.04918 17.0714C7.11493 17.17 7.17968 17.2671 7.24431 17.3687L7.24527 17.3702C7.84404 18.2871 8.47267 19.241 9.352 20.0249C10.4478 21.0053 11.8514 21.5437 13.3126 21.5437H13.316C13.5012 21.5437 13.6947 21.5437 13.8894 21.5243C16.9107 21.2354 19.2733 18.5818 19.2733 15.45V7.82063C19.2928 7.0203 18.7026 6.24398 17.9377 6.07837C17.6429 6.01293 17.3374 6.03826 17.0608 6.13242V5.13747C17.0608 4.32127 16.5107 3.60279 15.7669 3.41684L15.7653 3.41645C15.3939 3.32803 15.0208 3.36196 14.6872 3.50606C14.5727 3.24574 14.3925 3.03016 14.1764 2.84733L14.1732 2.84478ZM12.9762 3.66981C13.1348 3.62655 13.313 3.67027 13.4296 3.75723C13.5631 3.8615 13.6332 4.0056 13.6332 4.16247V11.0812C13.6332 11.4095 13.9075 11.6812 14.2314 11.6812C14.5552 11.6812 14.8295 11.4095 14.8295 11.0812V5.08122C14.8295 4.92394 14.9 4.7795 15.0341 4.67517C15.1646 4.57374 15.3228 4.54388 15.4866 4.58856L15.4874 4.58877C15.6959 4.64438 15.8645 4.85975 15.8645 5.13747V11.55C15.8645 11.8783 16.1388 12.15 16.4626 12.15C16.7865 12.15 17.0608 11.8783 17.0608 11.55V7.76247C17.0608 7.61489 17.1201 7.48463 17.2043 7.40043C17.3338 7.27087 17.5076 7.224 17.6912 7.25364C17.7741 7.27262 17.876 7.34533 17.961 7.46075C18.0461 7.57613 18.0957 7.70948 18.0957 7.81872V15.4125C18.0957 17.9261 16.2 20.0891 13.7863 20.3069C12.4388 20.4343 11.1484 20.0159 10.1485 19.1253C9.39649 18.4466 8.84384 17.6193 8.24298 16.6993C8.17667 16.5951 8.11048 16.4958 8.04528 16.398L8.04482 16.3973C7.97907 16.2987 7.91438 16.2015 7.84974 16.0999L7.84717 16.0962C7.20984 15.1589 6.55866 14.1724 6.03857 13.1322C5.92765 12.9104 5.88579 12.7686 5.88579 12.675C5.88579 12.5142 5.9591 12.3726 6.0698 12.2895L6.07773 12.2827C6.29778 12.092 6.63298 12.1247 6.8037 12.3381L9.29721 15.3191C9.45758 15.5294 9.73465 15.5693 9.94646 15.4987C10.1718 15.4236 10.3483 15.2003 10.3483 14.9437V6.01872C10.3483 5.73676 10.5203 5.5066 10.7243 5.45156C10.9031 5.40722 11.0592 5.45257 11.1718 5.55114L11.1786 5.55642C11.3127 5.66075 11.3832 5.80519 11.3832 5.96247V11.1C11.3832 11.4283 11.6575 11.7 11.9814 11.7C12.3052 11.7 12.5795 11.4283 12.5795 11.1V4.23747C12.5795 3.95711 12.75 3.72641 12.9732 3.67063L12.9762 3.66981Z" fill="white"/>
</svg>
