<svg width="24" height="24" viewBox="0 0 24 24" fill="none" xmlns="http://www.w3.org/2000/svg">
<path d="M5.25 3V4.5H6.75V7.5C6.75 9.40723 7.77539 11.0801 9.30469 12C7.77539 12.9199 6.75 14.5928 6.75 16.5V19.5H5.25V21H18.75V19.5H17.25V16.5C17.25 14.5928 16.2246 12.9199 14.6953 12C16.2246 11.0801 17.25 9.40723 17.25 7.5V4.5H18.75V3H5.25ZM8.25 4.5H15.75V7.5C15.75 9.58008 14.0801 11.25 12 11.25C9.91992 11.25 8.25 9.58008 8.25 7.5V4.5ZM12 12.75C14.0801 12.75 15.75 14.4199 15.75 16.5V19.5H8.25V16.5C8.25 14.4199 9.91992 12.75 12 12.75Z" fill="white"/>
</svg>
