<svg width="13" height="16" viewBox="0 0 13 16" fill="none" xmlns="http://www.w3.org/2000/svg">
<path d="M0.875 0.848938V2.09894H2.125V4.59894C2.125 6.18829 2.97949 7.58234 4.25391 8.34894C2.97949 9.11554 2.125 10.5096 2.125 12.0989V14.5989H0.875V15.8489H12.125V14.5989H10.875V12.0989C10.875 10.5096 10.0205 9.11554 8.74609 8.34894C10.0205 7.58234 10.875 6.18829 10.875 4.59894V2.09894H12.125V0.848938H0.875ZM3.375 2.09894H9.625V4.59894C9.625 6.33234 8.2334 7.72394 6.5 7.72394C4.7666 7.72394 3.375 6.33234 3.375 4.59894V2.09894ZM6.5 8.97394C8.2334 8.97394 9.625 10.3655 9.625 12.0989V14.5989H3.375V12.0989C3.375 10.3655 4.7666 8.97394 6.5 8.97394Z" fill="#4B5563"/>
</svg>
