<svg width="22" height="16" viewBox="0 0 22 16" fill="none" xmlns="http://www.w3.org/2000/svg">
<path d="M7.625 0.5C6.18359 0.5 5 1.68359 5 3.125C5 4.56641 6.18359 5.75 7.625 5.75C9.06641 5.75 10.25 4.56641 10.25 3.125C10.25 1.68359 9.06641 0.5 7.625 0.5ZM14.375 0.5C12.9336 0.5 11.75 1.68359 11.75 3.125C11.75 4.56641 12.9336 5.75 14.375 5.75C15.8164 5.75 17 4.56641 17 3.125C17 1.68359 15.8164 0.5 14.375 0.5ZM7.625 2C8.25488 2 8.75 2.49512 8.75 3.125C8.75 3.75488 8.25488 4.25 7.625 4.25C6.99512 4.25 6.5 3.75488 6.5 3.125C6.5 2.49512 6.99512 2 7.625 2ZM14.375 2C15.0049 2 15.5 2.49512 15.5 3.125C15.5 3.75488 15.0049 4.25 14.375 4.25C13.7451 4.25 13.25 3.75488 13.25 3.125C13.25 2.49512 13.7451 2 14.375 2ZM4.25 5C2.60059 5 1.25 6.35059 1.25 8C1.25 8.83496 1.60742 9.58789 2.16406 10.1328C1.16504 10.8096 0.5 11.9609 0.5 13.25H2C2 11.999 2.99902 11 4.25 11C5.50098 11 6.5 11.999 6.5 13.25H8C8 11.9609 7.33496 10.8096 6.33594 10.1328C6.89258 9.58789 7.25 8.83496 7.25 8C7.25 6.35059 5.89941 5 4.25 5ZM8 13.25C7.53125 13.877 7.25 14.665 7.25 15.5H8.75C8.75 14.249 9.74902 13.25 11 13.25C12.251 13.25 13.25 14.249 13.25 15.5H14.75C14.75 14.665 14.4688 13.877 14 13.25C13.7451 12.9102 13.4375 12.6201 13.0859 12.3828C13.6426 11.8379 14 11.085 14 10.25C14 8.60059 12.6494 7.25 11 7.25C9.35059 7.25 8 8.60059 8 10.25C8 11.085 8.35742 11.8379 8.91406 12.3828C8.5625 12.6201 8.25488 12.9102 8 13.25ZM14 13.25H15.5C15.5 11.999 16.499 11 17.75 11C19.001 11 20 11.999 20 13.25H21.5C21.5 11.9609 20.835 10.8096 19.8359 10.1328C20.3926 9.58789 20.75 8.83496 20.75 8C20.75 6.35059 19.3994 5 17.75 5C16.1006 5 14.75 6.35059 14.75 8C14.75 8.83496 15.1074 9.58789 15.6641 10.1328C14.665 10.8096 14 11.9609 14 13.25ZM4.25 6.5C5.08789 6.5 5.75 7.16211 5.75 8C5.75 8.83789 5.08789 9.5 4.25 9.5C3.41211 9.5 2.75 8.83789 2.75 8C2.75 7.16211 3.41211 6.5 4.25 6.5ZM17.75 6.5C18.5879 6.5 19.25 7.16211 19.25 8C19.25 8.83789 18.5879 9.5 17.75 9.5C16.9121 9.5 16.25 8.83789 16.25 8C16.25 7.16211 16.9121 6.5 17.75 6.5ZM11 8.75C11.8379 8.75 12.5 9.41211 12.5 10.25C12.5 11.0879 11.8379 11.75 11 11.75C10.1621 11.75 9.5 11.0879 9.5 10.25C9.5 9.41211 10.1621 8.75 11 8.75Z" fill="#111827"/>
</svg>
