<svg width="53" height="38" viewBox="0 0 53 38" fill="none" xmlns="http://www.w3.org/2000/svg">
<path d="M18.0625 0.25C14.459 0.25 11.5 3.20898 11.5 6.8125C11.5 10.416 14.459 13.375 18.0625 13.375C21.666 13.375 24.625 10.416 24.625 6.8125C24.625 3.20898 21.666 0.25 18.0625 0.25ZM34.9375 0.25C31.334 0.25 28.375 3.20898 28.375 6.8125C28.375 10.416 31.334 13.375 34.9375 13.375C38.541 13.375 41.5 10.416 41.5 6.8125C41.5 3.20898 38.541 0.25 34.9375 0.25ZM18.0625 4C19.6372 4 20.875 5.23779 20.875 6.8125C20.875 8.38721 19.6372 9.625 18.0625 9.625C16.4878 9.625 15.25 8.38721 15.25 6.8125C15.25 5.23779 16.4878 4 18.0625 4ZM34.9375 4C36.5122 4 37.75 5.23779 37.75 6.8125C37.75 8.38721 36.5122 9.625 34.9375 9.625C33.3628 9.625 32.125 8.38721 32.125 6.8125C32.125 5.23779 33.3628 4 34.9375 4ZM9.625 11.5C5.50146 11.5 2.125 14.8765 2.125 19C2.125 21.0874 3.01856 22.9697 4.41016 24.332C1.9126 26.0239 0.25 28.9023 0.25 32.125H4C4 28.9976 6.49756 26.5 9.625 26.5C12.7524 26.5 15.25 28.9976 15.25 32.125H19C19 28.9023 17.3374 26.0239 14.8398 24.332C16.2314 22.9697 17.125 21.0874 17.125 19C17.125 14.8765 13.7485 11.5 9.625 11.5ZM19 32.125C17.8281 33.6924 17.125 35.6626 17.125 37.75H20.875C20.875 34.6226 23.3726 32.125 26.5 32.125C29.6274 32.125 32.125 34.6226 32.125 37.75H35.875C35.875 35.6626 35.1719 33.6924 34 32.125C33.3628 31.2754 32.5938 30.5503 31.7148 29.957C33.1064 28.5947 34 26.7124 34 24.625C34 20.5015 30.6235 17.125 26.5 17.125C22.3765 17.125 19 20.5015 19 24.625C19 26.7124 19.8936 28.5947 21.2852 29.957C20.4062 30.5503 19.6372 31.2754 19 32.125ZM34 32.125H37.75C37.75 28.9976 40.2476 26.5 43.375 26.5C46.5024 26.5 49 28.9976 49 32.125H52.75C52.75 28.9023 51.0874 26.0239 48.5898 24.332C49.9814 22.9697 50.875 21.0874 50.875 19C50.875 14.8765 47.4985 11.5 43.375 11.5C39.2515 11.5 35.875 14.8765 35.875 19C35.875 21.0874 36.7686 22.9697 38.1602 24.332C35.6626 26.0239 34 28.9023 34 32.125ZM9.625 15.25C11.7197 15.25 13.375 16.9053 13.375 19C13.375 21.0947 11.7197 22.75 9.625 22.75C7.53027 22.75 5.875 21.0947 5.875 19C5.875 16.9053 7.53027 15.25 9.625 15.25ZM43.375 15.25C45.4697 15.25 47.125 16.9053 47.125 19C47.125 21.0947 45.4697 22.75 43.375 22.75C41.2803 22.75 39.625 21.0947 39.625 19C39.625 16.9053 41.2803 15.25 43.375 15.25ZM26.5 20.875C28.5947 20.875 30.25 22.5303 30.25 24.625C30.25 26.7197 28.5947 28.375 26.5 28.375C24.4053 28.375 22.75 26.7197 22.75 24.625C22.75 22.5303 24.4053 20.875 26.5 20.875Z" fill="#E0A714"/>
</svg>
