<svg width="22" height="16" viewBox="0 0 22 16" fill="none" xmlns="http://www.w3.org/2000/svg">
<path d="M2.75 0.5C1.5166 0.5 0.5 1.5166 0.5 2.75V13.25C0.5 14.4834 1.5166 15.5 2.75 15.5H19.25C20.4834 15.5 21.5 14.4834 21.5 13.25V2.75C21.5 1.5166 20.4834 0.5 19.25 0.5H2.75ZM2.75 2H19.25C19.6748 2 20 2.3252 20 2.75V13.25C20 13.6748 19.6748 14 19.25 14H2.75C2.3252 14 2 13.6748 2 13.25V2.75C2 2.3252 2.3252 2 2.75 2ZM7.25 3.5C5.60059 3.5 4.25 4.85059 4.25 6.5C4.25 7.33496 4.60742 8.08789 5.16406 8.63281C4.16504 9.30957 3.5 10.4609 3.5 11.75H5C5 10.499 5.99902 9.5 7.25 9.5C8.50098 9.5 9.5 10.499 9.5 11.75H11C11 10.4609 10.335 9.30957 9.33594 8.63281C9.89258 8.08789 10.25 7.33496 10.25 6.5C10.25 4.85059 8.89941 3.5 7.25 3.5ZM12.5 4.25V5.75H18.5V4.25H12.5ZM7.25 5C8.08789 5 8.75 5.66211 8.75 6.5C8.75 7.33789 8.08789 8 7.25 8C6.41211 8 5.75 7.33789 5.75 6.5C5.75 5.66211 6.41211 5 7.25 5ZM12.5 7.25V8.75H18.5V7.25H12.5ZM12.5 10.25V11.75H16.25V10.25H12.5Z" fill="#111827"/>
</svg>
