<svg width="22" height="13" viewBox="0 0 22 13" fill="none" xmlns="http://www.w3.org/2000/svg">
<path d="M0.5 0.25V13H21.5V0.25H0.5ZM3.5 1.75H18.5C18.5 2.57875 19.1712 3.25 20 3.25V10C19.1712 10 18.5 10.6713 18.5 11.5H3.5C3.5 10.6713 2.82875 10 2 10V3.25C2.82875 3.25 3.5 2.57875 3.5 1.75ZM11 3.25C9.34175 3.25 8 4.762 8 6.625C8 8.488 9.34175 10 11 10C12.6582 10 14 8.488 14 6.625C14 4.762 12.6582 3.25 11 3.25ZM11 4.75C11.8265 4.75 12.5 5.59075 12.5 6.625C12.5 7.65925 11.8265 8.5 11 8.5C10.1735 8.5 9.5 7.65925 9.5 6.625C9.5 5.59075 10.1735 4.75 11 4.75ZM5.375 5.5C4.754 5.5 4.25 6.004 4.25 6.625C4.25 7.246 4.754 7.75 5.375 7.75C5.996 7.75 6.5 7.246 6.5 6.625C6.5 6.004 5.996 5.5 5.375 5.5ZM16.625 5.5C16.004 5.5 15.5 6.004 15.5 6.625C15.5 7.246 16.004 7.75 16.625 7.75C17.246 7.75 17.75 7.246 17.75 6.625C17.75 6.004 17.246 5.5 16.625 5.5Z" fill="#111827"/>
</svg>
