<svg width="53" height="32" viewBox="0 0 53 32" fill="none" xmlns="http://www.w3.org/2000/svg">
<path d="M0.25 0.125V32H52.75V0.125H0.25ZM7.75 3.875H45.25C45.25 5.94688 46.9281 7.625 49 7.625V24.5C46.9281 24.5 45.25 26.1781 45.25 28.25H7.75C7.75 26.1781 6.07188 24.5 4 24.5V7.625C6.07188 7.625 7.75 5.94688 7.75 3.875ZM26.5 7.625C22.3544 7.625 19 11.405 19 16.0625C19 20.72 22.3544 24.5 26.5 24.5C30.6456 24.5 34 20.72 34 16.0625C34 11.405 30.6456 7.625 26.5 7.625ZM26.5 11.375C28.5662 11.375 30.25 13.4769 30.25 16.0625C30.25 18.6481 28.5662 20.75 26.5 20.75C24.4338 20.75 22.75 18.6481 22.75 16.0625C22.75 13.4769 24.4338 11.375 26.5 11.375ZM12.4375 13.25C10.885 13.25 9.625 14.51 9.625 16.0625C9.625 17.615 10.885 18.875 12.4375 18.875C13.99 18.875 15.25 17.615 15.25 16.0625C15.25 14.51 13.99 13.25 12.4375 13.25ZM40.5625 13.25C39.01 13.25 37.75 14.51 37.75 16.0625C37.75 17.615 39.01 18.875 40.5625 18.875C42.115 18.875 43.375 17.615 43.375 16.0625C43.375 14.51 42.115 13.25 40.5625 13.25Z" fill="#E0A714"/>
</svg>
