<svg width="73" height="61" viewBox="0 0 73 61" fill="none" xmlns="http://www.w3.org/2000/svg">
<path d="M71.0702 40.3789C67.6094 37.4172 64.3225 36.0713 61.3047 36.3853C60.3648 36.4821 59.5635 36.7285 58.847 37.0452C58.4389 34.7328 56.3134 32.9081 53.6327 32.5773V27.1392C54.7022 26.9395 56.4739 26.4168 57.8032 25.052C59.784 23.0181 59.9395 19.9699 59.9451 19.8414C59.9558 19.595 59.8628 19.3556 59.688 19.1817C59.5141 19.0078 59.285 18.9247 59.0279 18.9264C58.9016 18.9324 55.9129 19.093 53.924 21.1355C53.4293 21.6433 53.0485 22.2143 52.7554 22.7874C52.4623 22.2143 52.0814 21.6433 51.5868 21.1355C49.5975 19.093 46.6087 18.9324 46.4824 18.9264C46.2339 18.9229 45.9962 19.0078 45.8223 19.1817C45.6475 19.3556 45.5545 19.595 45.5652 19.8414C45.5708 19.9699 45.7263 23.0181 47.7075 25.052C49.0366 26.4169 50.8084 26.9396 51.8781 27.1392V32.5784C49.2787 32.9017 47.1975 34.6225 46.6997 36.8314C46.1423 36.5916 45.5061 36.423 44.7501 36.3819C43.5066 36.3116 42.5065 36.6244 41.6379 37.0799C41.2451 34.7511 39.1115 32.9097 36.4171 32.5773V27.1392C37.4865 26.9397 39.2584 26.417 40.5876 25.052C42.5688 23.0181 42.7243 19.9699 42.7299 19.8414C42.7406 19.595 42.6476 19.3556 42.4729 19.1817C42.299 19.0078 42.0698 18.9247 41.8128 18.9264C41.6864 18.9324 38.6977 19.093 36.7083 21.1355C36.2137 21.6433 35.833 22.2145 35.54 22.7876C35.2469 22.2145 34.8662 21.6433 34.3716 21.1355C32.3823 19.093 29.3936 18.9324 29.2672 18.9264C29.0187 18.9229 28.781 19.0078 28.6071 19.1817C28.4323 19.3556 28.3394 19.595 28.3501 19.8414C28.3556 19.9699 28.5111 23.0181 30.4919 25.052C31.8212 26.4168 33.5929 26.9395 34.6625 27.1392V32.5784C31.9781 32.9123 29.8512 34.7383 29.4452 37.0509C28.6365 36.6552 27.6981 36.3806 26.5424 36.3806C26.5239 36.3806 26.5051 36.3806 26.4862 36.3806C25.6874 36.3867 24.9931 36.5362 24.3649 36.7631C23.8406 34.5842 21.7736 32.8946 19.2019 32.5773V27.1392C20.2715 26.9395 22.0431 26.4168 23.3725 25.052C25.3536 23.0181 25.5091 19.9699 25.5147 19.8414C25.5254 19.595 25.4325 19.3556 25.2577 19.1817C25.0838 19.0078 24.855 18.9247 24.5976 18.9264C24.4712 18.9324 21.4821 19.093 19.4932 21.1355C18.9985 21.6433 18.6177 22.2143 18.3246 22.7874C18.0315 22.2143 17.6507 21.6433 17.156 21.1355C15.1671 19.093 12.178 18.9324 12.0516 18.9264C11.7959 18.9229 11.5654 19.0078 11.3915 19.1817C11.2167 19.3556 11.1237 19.595 11.1345 19.8414C11.14 19.9699 11.2955 23.0181 13.2767 25.052C14.606 26.4168 16.3777 26.9395 17.4473 27.1392V32.5784C14.7479 32.9142 12.6119 34.7587 12.2232 37.0898C11.5562 36.7357 10.802 36.469 9.88106 36.3844C7.27145 36.1424 4.47979 37.5046 1.59003 40.4286C1.24905 40.7735 1.25248 41.3286 1.59689 41.6692C1.94129 42.0102 2.49731 42.0067 2.83744 41.6623C5.34124 39.1303 7.66298 37.9488 9.72042 38.1313C11.1075 38.259 12.0126 38.9709 13.0604 39.7951C14.1459 40.6484 15.3757 41.6156 17.2515 41.9121C17.5402 41.9575 17.817 41.9789 18.0821 41.9789C19.9442 41.9789 21.2576 40.9363 22.4335 40.0028C22.9349 39.6046 23.4272 39.2199 23.9538 38.9008C23.9641 38.8965 23.9719 38.8889 23.982 38.8843C24.7088 38.4485 25.5044 38.1428 26.5 38.1352C28.2661 38.1287 29.2968 38.9221 30.5112 39.8486C31.7971 40.8296 33.2313 41.9596 35.6049 41.9228C37.9665 41.9048 39.4572 40.7692 40.7727 39.7668C41.9845 38.8433 43.0156 38.0482 44.655 38.1339C46.126 38.214 46.9549 38.9525 47.9148 39.8075C48.9673 40.7452 50.1603 41.8084 52.2426 41.9215C54.4423 42.0337 55.8953 41.0138 57.2986 40.0208C58.5387 39.1427 59.7103 38.3134 61.4846 38.1305C64.0081 37.8687 66.8482 39.0759 69.929 41.712C70.2974 42.0269 70.8508 41.984 71.1661 41.6161C71.481 41.2477 71.4381 40.6938 71.0702 40.3789ZM20.75 22.3597C21.6054 21.4811 22.7586 21.0583 23.5943 20.857C23.3999 21.724 22.9861 22.9337 22.1156 23.8277C21.2602 24.7059 20.107 25.1287 19.2713 25.3304C19.4658 24.463 19.8796 23.2537 20.75 22.3597ZM13.0548 20.857C13.8906 21.0583 15.0437 21.4816 15.8992 22.3597C16.7709 23.255 17.1847 24.4669 17.3788 25.3343C16.546 25.1351 15.3963 24.7132 14.5335 23.8277C13.6627 22.9337 13.2489 21.7236 13.0548 20.857ZM21.3424 38.6286C20.0783 39.6323 19.0794 40.4248 17.5257 40.1789C16.1009 39.954 15.1508 39.2069 14.145 38.4157C14.0664 38.3538 13.9865 38.2921 13.9073 38.2302V37.8516C13.9073 35.8777 15.891 34.2722 18.3297 34.2722C20.6606 34.2722 22.5553 35.7516 22.7104 37.6122C22.2219 37.9368 21.7707 38.2886 21.3424 38.6286ZM37.9652 22.3597C38.8206 21.4811 39.9742 21.0583 40.8095 20.857C40.615 21.724 40.2012 22.9337 39.3308 23.8277C38.4754 24.7059 37.3226 25.1287 36.4869 25.3304C36.6814 24.463 37.0947 23.2537 37.9652 22.3597ZM30.2696 20.8532C31.1023 21.0524 32.2521 21.4743 33.1148 22.3597C33.9865 23.255 34.3999 24.4669 34.5939 25.3343C33.7612 25.1351 32.6115 24.7132 31.7487 23.8277C30.877 22.9325 30.4632 21.7202 30.2696 20.8532ZM35.5912 40.1682C33.8738 40.1532 32.7914 39.3808 31.5752 38.4534C31.4272 38.3405 31.2762 38.2258 31.1225 38.1113V37.8516C31.1225 35.8777 33.1062 34.2722 35.5449 34.2722C37.9767 34.2722 39.9554 35.8777 39.9554 37.8516V38.1853C39.8733 38.2473 39.7896 38.3098 39.709 38.3712C38.5053 39.2883 37.3685 40.1545 35.5912 40.1682ZM55.1808 22.3597C56.0362 21.4811 57.1894 21.0583 58.0247 20.857C57.8306 21.724 57.4168 22.9337 56.5464 23.8277C55.691 24.7059 54.5378 25.1287 53.7021 25.3304C53.8965 24.463 54.3103 23.2537 55.1808 22.3597ZM47.4847 20.8532C48.3175 21.0524 49.4672 21.4743 50.33 22.3597C51.2004 23.2537 51.6142 24.4634 51.8087 25.3304C50.9725 25.1291 49.8198 24.7059 48.9643 23.8277C48.0922 22.9325 47.6788 21.7202 47.4847 20.8532ZM52.3377 40.1695C50.8688 40.0898 50.0408 39.3517 49.0817 38.4976C48.8445 38.2862 48.5981 38.0691 48.3381 37.8573V37.8516C48.3381 35.8777 50.3218 34.2722 52.7605 34.2722C55.1923 34.2722 57.1705 35.8777 57.1705 37.8516V37.978C56.8639 38.1812 56.5688 38.3876 56.2847 38.5888C55.021 39.4837 53.9308 40.2479 52.3377 40.1695Z" fill="#FFFFFF"/>
</svg>
