<svg width="35" height="51" viewBox="0 0 35 51" fill="none" xmlns="http://www.w3.org/2000/svg">
<path d="M17.5 0.625C8.20557 0.625 0.625 8.20557 0.625 17.5C0.625 20.1367 1.69434 23.1616 3.14453 26.4648C4.59473 29.7681 6.4624 33.2764 8.35938 36.543C12.1533 43.0835 15.9766 48.5547 15.9766 48.5547L17.5 50.7812L19.0234 48.5547C19.0234 48.5547 22.8467 43.0835 26.6406 36.543C28.5376 33.2764 30.4053 29.7681 31.8555 26.4648C33.3057 23.1616 34.375 20.1367 34.375 17.5C34.375 8.20557 26.7944 0.625 17.5 0.625ZM17.5 4.375C24.7729 4.375 30.625 10.2271 30.625 17.5C30.625 19.0015 29.8193 21.8433 28.457 24.9414C27.0947 28.0396 25.2124 31.4746 23.3594 34.668C20.415 39.751 18.584 42.439 17.5 44.043C16.416 42.439 14.585 39.751 11.6406 34.668C9.7876 31.4746 7.90527 28.0396 6.54297 24.9414C5.18067 21.8433 4.375 19.0015 4.375 17.5C4.375 10.2271 10.2271 4.375 17.5 4.375ZM17.5 13.75C15.4272 13.75 13.75 15.4272 13.75 17.5C13.75 19.5728 15.4272 21.25 17.5 21.25C19.5728 21.25 21.25 19.5728 21.25 17.5C21.25 15.4272 19.5728 13.75 17.5 13.75Z" fill="#E0A714"/>
</svg>
