<svg width="14" height="21" viewBox="0 0 14 21" fill="none" xmlns="http://www.w3.org/2000/svg">
<path d="M7 0.150391C3.28223 0.150391 0.25 3.18262 0.25 6.90039C0.25 7.95508 0.677735 9.16504 1.25781 10.4863C1.83789 11.8076 2.58496 13.2109 3.34375 14.5176C4.86133 17.1338 6.39062 19.3223 6.39062 19.3223L7 20.2129L7.60938 19.3223C7.60938 19.3223 9.13867 17.1338 10.6562 14.5176C11.415 13.2109 12.1621 11.8076 12.7422 10.4863C13.3223 9.16504 13.75 7.95508 13.75 6.90039C13.75 3.18262 10.7178 0.150391 7 0.150391ZM7 1.65039C9.90918 1.65039 12.25 3.99121 12.25 6.90039C12.25 7.50098 11.9277 8.6377 11.3828 9.87695C10.8379 11.1162 10.085 12.4902 9.34375 13.7676C8.16602 15.8008 7.43359 16.876 7 17.5176C6.56641 16.876 5.83398 15.8008 4.65625 13.7676C3.91504 12.4902 3.16211 11.1162 2.61719 9.87695C2.07227 8.6377 1.75 7.50098 1.75 6.90039C1.75 3.99121 4.09082 1.65039 7 1.65039ZM7 5.40039C6.1709 5.40039 5.5 6.07129 5.5 6.90039C5.5 7.72949 6.1709 8.40039 7 8.40039C7.8291 8.40039 8.5 7.72949 8.5 6.90039C8.5 6.07129 7.8291 5.40039 7 5.40039Z" fill="#111827"/>
</svg>
