<svg width="15" height="36" viewBox="0 0 15 36" fill="none" xmlns="http://www.w3.org/2000/svg">
<path d="M7.5 0.5C4.75098 0.5 2.5 2.75098 2.5 5.5C2.5 6.83301 3.04199 8.03906 3.90625 8.9375C1.5918 10.2168 0 12.6826 0 15.5V22.2578L0.351562 22.6484L2.5 24.7969V35.5H5V23.7422L4.64844 23.3516L2.5 21.2031V15.5C2.5 12.7266 4.72656 10.5 7.5 10.5C10.2734 10.5 12.5 12.7266 12.5 15.5V21.2031L10.3516 23.3516L10 23.7422V35.5H12.5V24.7969L14.6484 22.6484L15 22.2578V15.5C15 12.6826 13.4082 10.2168 11.0938 8.9375C11.958 8.03906 12.5 6.83301 12.5 5.5C12.5 2.75098 10.249 0.5 7.5 0.5ZM7.5 3C8.89649 3 10 4.10352 10 5.5C10 6.89648 8.89649 8 7.5 8C6.10352 8 5 6.89648 5 5.5C5 4.10352 6.10352 3 7.5 3Z" fill="#FFFFFF"/>
</svg>
