<svg width="32" height="38" viewBox="0 0 32 38" fill="none" xmlns="http://www.w3.org/2000/svg">
<path d="M23.3555 0.625C20.626 0.625 18.3789 2.87207 18.3789 5.60156C18.3789 8.33106 20.626 10.5781 23.3555 10.5781C26.0913 10.5781 28.3828 8.33106 28.3828 5.60156C28.3828 2.87207 26.0913 0.625 23.3555 0.625ZM23.3555 3.875C24.333 3.875 25.1328 4.63037 25.1328 5.60156C25.1328 6.57275 24.333 7.32812 23.3555 7.32812C22.3843 7.32812 21.6289 6.5791 21.6289 5.60156C21.6289 4.63037 22.3843 3.875 23.3555 3.875ZM11.5234 7.125C10.7427 7.22022 9.95557 7.58203 9.39062 8.19141L3.90625 14.1328L6.34375 16.3672L11.7773 10.4258C11.8345 10.3687 11.9106 10.3306 11.9805 10.375L14.5703 12.1016L10.7617 17.3828C9.56836 19.0586 9.76514 21.3628 11.2188 22.8164L16.957 28.5547L12.2344 38H15.8906L19.9023 30.0273C20.5308 28.7769 20.2832 27.2598 19.293 26.2695L13.5547 20.5312C13.2246 20.2012 13.1802 19.6426 13.4531 19.2617L17.2617 13.9297L18.582 14.793L21.1719 18.7031C21.7749 19.6045 22.7778 20.125 23.8633 20.125H31.125V16.875H23.8633L21.1211 12.7109L20.918 12.457L20.6641 12.2539L13.8086 7.68359C13.1167 7.22022 12.3042 7.02978 11.5234 7.125ZM10.1016 24.2383L7.71484 26.625H0.25V29.875H7.71484C8.57178 29.875 9.39062 29.5259 10 28.9102L12.3867 26.5234L10.1016 24.2383Z" fill="white"/>
</svg>
