<svg width="41" height="40" viewBox="0 0 41 40" fill="none" xmlns="http://www.w3.org/2000/svg">
<path d="M11.5 2.5C8.75098 2.5 6.5 4.75098 6.5 7.5C6.5 8.83301 7.04199 10.0391 7.90625 10.9375C5.5918 12.2168 4 14.6826 4 17.5V24.2578L4.35156 24.6484L6.5 26.7969V37.5H9V25.7422L8.64844 25.3516L6.5 23.2031V17.5C6.5 14.7266 8.72656 12.5 11.5 12.5C14.2734 12.5 16.5 14.7266 16.5 17.5V23.2031L14.3516 25.3516L14 25.7422V37.5H16.5V26.7969L18.6484 24.6484L19 24.2578V17.5C19 14.6826 17.4082 12.2168 15.0938 10.9375C15.958 10.0391 16.5 8.83301 16.5 7.5C16.5 4.75098 14.249 2.5 11.5 2.5ZM11.5 5C12.8965 5 14 6.10352 14 7.5C14 8.89648 12.8965 10 11.5 10C10.1035 10 9 8.89648 9 7.5C9 6.10352 10.1035 5 11.5 5Z" fill="#FFFFFF"/>
<path d="M27.0234 2.5C24.2744 2.5 22.0234 4.75098 22.0234 7.5C22.0234 8.91113 22.6338 10.1807 23.5859 11.0938C23.2881 11.3086 23.0146 11.5332 22.7656 11.7969C21.7158 12.9102 21.0615 14.3945 20.7734 16.0156H20.8125L18.3125 28.5156L18 30H23.2734V37.5H25.7734V30H28.2734V37.5H30.7734V30H36.0469L35.7344 28.5156L33.2344 16.0156C32.9463 14.4727 32.3213 13.0029 31.2812 11.875C31.0225 11.5918 30.7344 11.3232 30.4219 11.0938C31.3887 10.1807 32.0234 8.9209 32.0234 7.5C32.0234 4.75098 29.7725 2.5 27.0234 2.5ZM27.0234 5C28.4199 5 29.5234 6.10352 29.5234 7.5C29.5234 8.89648 28.4199 10 27.0234 10C25.627 10 24.5234 8.89648 24.5234 7.5C24.5234 6.10352 25.627 5 27.0234 5ZM27.0234 12.5C28.0586 12.5 28.8008 12.8955 29.4453 13.5938C30.0898 14.292 30.5977 15.3271 30.8125 16.4844L33 27.5H21.0469L23.2344 16.4844H23.2734C23.4932 15.2344 23.9717 14.1846 24.6016 13.5156C25.2314 12.8467 25.9639 12.5 27.0234 12.5Z" fill="#FFFFFF"/>
</svg>
