<svg width="16" height="18" viewBox="0 0 16 18" fill="none" xmlns="http://www.w3.org/2000/svg">
<path d="M8 0.75C5.1084 0.75 2.75 3.1084 2.75 6C2.75 7.80762 3.67285 9.41309 5.07031 10.3594C2.39551 11.5078 0.5 14.1621 0.5 17.25H2C2 13.9277 4.67773 11.25 8 11.25C11.3223 11.25 14 13.9277 14 17.25H15.5C15.5 14.1621 13.6045 11.5078 10.9297 10.3594C12.3271 9.41309 13.25 7.80762 13.25 6C13.25 3.1084 10.8916 0.75 8 0.75ZM8 2.25C10.0801 2.25 11.75 3.91992 11.75 6C11.75 8.08008 10.0801 9.75 8 9.75C5.91992 9.75 4.25 8.08008 4.25 6C4.25 3.91992 5.91992 2.25 8 2.25Z" fill="#111827"/>
</svg>
