<svg width="20" height="26" viewBox="0 0 20 26" fill="none" xmlns="http://www.w3.org/2000/svg">
<path fill-rule="evenodd" clip-rule="evenodd" d="M12.8979 0.793062C12.3458 0.351346 11.633 0.218102 10.9315 0.379982L10.9281 0.380813C9.93635 0.628746 9.20288 1.58671 9.20288 2.67498V2.80917C8.80647 2.68457 8.37355 2.66706 7.9602 2.75408L7.95429 2.75551C6.93422 3.00364 6.22788 3.96421 6.22788 5.04998V14.7073L4.30076 12.4202L4.29966 12.4189C3.48025 11.4629 2.0585 11.3259 1.07489 12.1456L1.0741 12.1462C0.555485 12.583 0.252884 13.2136 0.252884 13.9C0.252884 14.3139 0.363961 14.7456 0.625425 15.2428C1.38066 16.7278 2.28584 18.0856 3.13387 19.3576L3.13551 19.3601C3.2237 19.4986 3.31173 19.6307 3.39844 19.7607L3.39919 19.7619C3.48686 19.8934 3.57319 20.0229 3.65936 20.1583L3.66064 20.1603C4.459 21.3828 5.29717 22.6548 6.46961 23.6998C7.93068 25.0071 9.80219 25.725 11.7504 25.725H11.755C12.0018 25.725 12.2599 25.725 12.5194 25.6991C16.5479 25.3139 19.698 21.7757 19.698 17.6V7.42753C19.724 6.36042 18.9371 5.32533 17.9173 5.10451C17.5241 5.01726 17.1168 5.05103 16.748 5.17658V3.84998C16.748 2.76171 16.0145 1.80373 15.0228 1.5558L15.0207 1.55529C14.5255 1.43739 14.028 1.48264 13.5833 1.67476C13.4306 1.32768 13.1903 1.04023 12.9022 0.796466L12.8979 0.793062ZM11.3018 1.89309C11.5133 1.83541 11.751 1.89372 11.9065 2.00966C12.0844 2.14869 12.1779 2.34081 12.1779 2.54998V11.775C12.1779 12.2127 12.5436 12.575 12.9754 12.575C13.4073 12.575 13.773 12.2127 13.773 11.775V3.77498C13.773 3.56527 13.867 3.37268 14.0458 3.23358C14.2197 3.09834 14.4306 3.05852 14.6491 3.11809L14.6501 3.11838C14.9282 3.19253 15.1529 3.47969 15.1529 3.84998V12.4C15.1529 12.8377 15.5186 13.2 15.9504 13.2C16.3823 13.2 16.748 12.8377 16.748 12.4V7.34998C16.748 7.15321 16.827 6.97952 16.9393 6.86727C17.112 6.69452 17.3437 6.63203 17.5886 6.67154C17.6991 6.69684 17.8349 6.79379 17.9483 6.94769C18.0617 7.10153 18.1279 7.27932 18.1279 7.42498V17.55C18.1279 20.9014 15.6003 23.7855 12.3821 24.0758C10.5854 24.2458 8.8648 23.6879 7.53156 22.5004C6.52894 21.5955 5.79207 20.4925 4.99093 19.2657C4.90251 19.1268 4.81426 18.9944 4.72732 18.864L4.7267 18.8631C4.63903 18.7316 4.55278 18.602 4.4666 18.4666L4.46318 18.4616C3.61341 17.2119 2.74517 15.8966 2.05171 14.5097C1.90382 14.2139 1.84801 14.0248 1.84801 13.9C1.84801 13.6856 1.94574 13.4968 2.09334 13.3861L2.10393 13.3769C2.39732 13.1226 2.84425 13.1663 3.07188 13.4509L6.39656 17.4255C6.61039 17.7059 6.97981 17.7591 7.26223 17.6649C7.56268 17.5648 7.79801 17.2671 7.79801 16.925V5.02498C7.79801 4.64904 8.02734 4.34216 8.29934 4.26877C8.53772 4.20965 8.74583 4.27011 8.89604 4.40154L8.90508 4.40858C9.08394 4.54769 9.17789 4.74027 9.17789 4.94998V11.8C9.17789 12.2377 9.54363 12.6 9.97545 12.6C10.4073 12.6 10.773 12.2377 10.773 11.8V2.64998C10.773 2.27617 11.0003 1.96856 11.2978 1.89419L11.3018 1.89309Z" fill="white"/>
</svg>
