<svg width="22" height="22" viewBox="0 0 22 22" fill="none" xmlns="http://www.w3.org/2000/svg">
<path d="M10.6612 0.140741C10.2185 0.153761 9.76277 0.20259 9.30704 0.270949H9.281C4.84415 0.99686 1.2504 4.49295 0.34871 8.91678C0.0785273 10.1765 0.094804 11.3517 0.270585 12.5105C0.277096 12.5138 0.270585 12.5301 0.270585 12.5366C0.544022 14.493 3.08308 15.3491 4.51538 13.9168C5.54077 12.8914 7.05769 12.8914 8.08308 13.9168C9.10848 14.9422 9.10848 16.4591 8.08308 17.4845C6.65079 18.9168 7.50691 21.4558 9.46329 21.7293C9.4698 21.7293 9.48608 21.7228 9.48933 21.7293C10.6384 21.9051 11.807 21.9148 13.057 21.6512C13.0668 21.6512 13.0733 21.6512 13.0831 21.6512C17.5199 20.8243 21.0063 17.1459 21.7289 12.7189V12.6928C22.6729 6.32564 18.018 0.76574 11.9633 0.192824C11.5303 0.150506 11.1039 0.12772 10.6612 0.140741ZM10.6873 1.80741C11.0649 1.79439 11.4392 1.8009 11.807 1.83345C16.9698 2.30545 20.8956 7.01249 20.0883 12.4584C19.4796 16.1889 16.488 19.3269 12.7706 20.0105H12.7445C11.6801 20.2384 10.697 20.2417 9.69767 20.0887C9.01407 20.004 8.69832 19.239 9.25496 18.6824C10.8956 17.0418 10.8956 14.3855 9.25496 12.7449C7.61433 11.1043 4.95808 11.1043 3.31746 12.7449C2.76082 13.3015 1.99585 12.9858 1.91121 12.3022C1.75821 11.3028 1.76147 10.3198 1.98933 9.25532C2.75431 5.51509 5.81095 2.5203 9.54142 1.91157C9.93204 1.85298 10.3096 1.82043 10.6873 1.80741ZM9.33308 3.50012C8.41186 3.50012 7.66642 4.24556 7.66642 5.16678C7.66642 6.08801 8.41186 6.83345 9.33308 6.83345C10.2543 6.83345 10.9998 6.08801 10.9998 5.16678C10.9998 4.24556 10.2543 3.50012 9.33308 3.50012ZM15.1664 5.16678C14.2452 5.16678 13.4998 5.91222 13.4998 6.83345C13.4998 7.75467 14.2452 8.50011 15.1664 8.50011C16.0876 8.50011 16.8331 7.75467 16.8331 6.83345C16.8331 5.91222 16.0876 5.16678 15.1664 5.16678ZM5.16642 6.83345C4.24519 6.83345 3.49975 7.57889 3.49975 8.50011C3.49975 9.42134 4.24519 10.1668 5.16642 10.1668C6.08764 10.1668 6.83308 9.42134 6.83308 8.50011C6.83308 7.57889 6.08764 6.83345 5.16642 6.83345ZM16.8331 11.0001C15.9119 11.0001 15.1664 11.7456 15.1664 12.6668C15.1664 13.588 15.9119 14.3334 16.8331 14.3334C17.7543 14.3334 18.4998 13.588 18.4998 12.6668C18.4998 11.7456 17.7543 11.0001 16.8331 11.0001ZM13.4998 15.1668C12.5785 15.1668 11.8331 15.9122 11.8331 16.8334C11.8331 17.7547 12.5785 18.5001 13.4998 18.5001C14.421 18.5001 15.1664 17.7547 15.1664 16.8334C15.1664 15.9122 14.421 15.1668 13.4998 15.1668Z" fill="white"/>
</svg>
