<svg width="73" height="61" viewBox="0 0 73 61" fill="none" xmlns="http://www.w3.org/2000/svg">
<path d="M32.8996 32.901C32.8957 32.8952 32.8923 32.8886 32.8891 32.8812C32.761 32.5753 32.6697 32.2594 32.6023 31.9371C32.5792 31.8266 32.5808 31.7133 32.5859 31.6007C32.5868 31.5807 32.5876 31.5606 32.5885 31.5405C32.5898 31.5071 32.5912 31.4738 32.5929 31.4404C32.6146 31.0135 32.6853 30.5945 32.8148 30.1847C32.8887 29.9511 32.984 29.7257 33.0941 29.5056C33.1269 29.44 33.1586 29.3738 33.192 29.3044C33.2076 29.2719 33.2236 29.2386 33.2402 29.2043C33.2445 29.2125 33.2485 29.2198 33.2521 29.2265C33.2592 29.2396 33.2652 29.2505 33.2704 29.2617C33.2965 29.3171 33.3224 29.3728 33.3482 29.4284C33.4023 29.5447 33.4564 29.6611 33.5128 29.7764C33.5857 29.9256 33.6755 30.0658 33.7816 30.1961C33.7871 30.2029 33.793 30.2093 33.8003 30.2171C33.804 30.221 33.808 30.2254 33.8125 30.2303C34.0313 29.8868 34.2237 29.5342 34.3936 29.1706C34.5639 28.8063 34.7081 28.4329 34.8308 28.0518C34.9456 27.695 35.0289 27.3306 35.1144 26.9563C35.1201 26.9317 35.1257 26.907 35.1314 26.8823C35.1407 26.8894 35.1491 26.8954 35.1567 26.9008C35.171 26.911 35.1824 26.9191 35.192 26.9289C35.2363 26.974 35.2807 27.019 35.3251 27.0641C35.4571 27.198 35.5892 27.3319 35.7185 27.4681C35.9464 27.7079 36.1546 27.9628 36.3426 28.2322C36.5394 28.5141 36.7093 28.8098 36.8362 29.1266C36.8392 29.134 36.8428 29.1412 36.8475 29.1505C36.8502 29.156 36.8533 29.1622 36.8569 29.1696C36.9395 29.0281 37.0003 28.8865 37.0465 28.7394C37.0783 28.6383 37.1074 28.5365 37.1366 28.4343C37.1496 28.389 37.1625 28.3437 37.1757 28.2983C37.1792 28.2993 37.1823 28.3 37.1849 28.3005C37.1898 28.3016 37.1933 28.3024 37.1959 28.3044C37.2373 28.3364 37.2791 28.368 37.3209 28.3996C37.4568 28.5021 37.5927 28.6046 37.7137 28.7238C37.9068 28.914 38.0662 29.1256 38.1737 29.3707C38.189 29.4056 38.2029 29.4411 38.218 29.4798C38.2256 29.4992 38.2335 29.5194 38.242 29.5407L38.3346 29.4034C38.417 29.2813 38.4979 29.1613 38.5804 29.039C38.5836 29.0424 38.5866 29.0454 38.5895 29.0482C38.5949 29.0536 38.5996 29.0582 38.6035 29.0634C38.6277 29.096 38.6521 29.1284 38.6765 29.1609C38.7964 29.3205 38.9163 29.4801 39.0211 29.6495C39.237 29.9986 39.3987 30.3676 39.4794 30.7668C39.5268 31.0015 39.5419 31.2383 39.5295 31.4769C39.5204 31.6531 39.4771 31.8228 39.4224 31.9904C39.4101 32.0282 39.397 32.0659 39.3839 32.1035C39.369 32.1464 39.3541 32.1892 39.3403 32.2324C39.3331 32.2549 39.3227 32.2734 39.3086 32.289C38.9368 33.0747 37.1801 33.8692 36.0018 34.0046C34.8151 34.141 33.0903 33.5012 32.9022 32.9124C32.901 32.9086 32.9002 32.9048 32.8996 32.901Z" fill="#FFFFFF"/>
<path d="M50.4869 32.4885C50.4836 32.4837 50.4808 32.4782 50.4782 32.4721C50.3716 32.2177 50.2957 31.9549 50.2397 31.6869C50.2204 31.595 50.2218 31.5009 50.226 31.4072C50.2268 31.3905 50.2274 31.3738 50.2281 31.3571C50.2293 31.3294 50.2304 31.3016 50.2318 31.2739C50.2499 30.9189 50.3087 30.5704 50.4164 30.2296C50.4778 30.0354 50.557 29.8479 50.6486 29.6649C50.6759 29.6104 50.7023 29.5553 50.73 29.4976C50.743 29.4705 50.7563 29.4428 50.7701 29.4143C50.7737 29.4212 50.777 29.4272 50.78 29.4328C50.786 29.4437 50.7909 29.4528 50.7952 29.462C50.8169 29.5082 50.8384 29.5544 50.8599 29.6007C50.9049 29.6974 50.9499 29.7942 50.9968 29.8901C51.0575 30.0142 51.1321 30.1308 51.2203 30.2392C51.2249 30.2448 51.2298 30.2501 51.2359 30.2566C51.2389 30.2599 51.2423 30.2635 51.246 30.2676C51.428 29.9819 51.588 29.6887 51.7293 29.3863C51.8709 29.0834 51.9908 28.7729 52.0928 28.4559C52.1884 28.1592 52.2576 27.8562 52.3287 27.5449C52.3334 27.5245 52.3381 27.5039 52.3428 27.4834C52.3506 27.4893 52.3575 27.4943 52.3638 27.4987C52.3758 27.5072 52.3853 27.514 52.3932 27.5222C52.4301 27.5597 52.467 27.5971 52.5039 27.6345C52.6137 27.7459 52.7235 27.8572 52.8311 27.9705C53.0206 28.17 53.1937 28.3819 53.3501 28.6059C53.5137 28.8404 53.655 29.0863 53.7606 29.3498C53.763 29.3559 53.766 29.3619 53.7699 29.3696C53.7722 29.3741 53.7748 29.3793 53.7778 29.3855C53.8465 29.2679 53.897 29.1501 53.9354 29.0277C53.9619 28.9437 53.9861 28.859 54.0104 28.774C54.0211 28.7364 54.0319 28.6987 54.0429 28.6609C54.0458 28.6617 54.0483 28.6623 54.0505 28.6628C54.0546 28.6637 54.0575 28.6643 54.0597 28.666C54.0941 28.6926 54.1289 28.7189 54.1637 28.7451C54.2766 28.8304 54.3896 28.9157 54.4903 29.0148C54.6509 29.1729 54.7834 29.3489 54.8728 29.5527C54.8856 29.5817 54.8971 29.6113 54.9097 29.6435C54.916 29.6596 54.9225 29.6764 54.9296 29.6941L55.0066 29.5799C55.0751 29.4784 55.1424 29.3786 55.211 29.2769C55.2137 29.2797 55.2162 29.2822 55.2186 29.2845C55.2231 29.289 55.227 29.2929 55.2302 29.2972C55.2504 29.3243 55.2707 29.3513 55.2909 29.3782C55.3906 29.511 55.4903 29.6437 55.5775 29.7846C55.757 30.0749 55.8916 30.3818 55.9586 30.7137C55.9981 30.9089 56.0106 31.1058 56.0003 31.3042C55.9927 31.4507 55.9567 31.5919 55.9112 31.7313C55.901 31.7627 55.8901 31.794 55.8792 31.8253C55.8668 31.861 55.8544 31.8966 55.843 31.9325C55.837 31.9513 55.8284 31.9666 55.8166 31.9796C55.5074 32.633 54.0465 33.2936 53.0666 33.4063C52.0798 33.5197 50.6455 32.9877 50.489 32.498C50.488 32.4949 50.4873 32.4917 50.4869 32.4885Z" fill="#FFFFFF"/>
<path d="M17.4857 32.4885C17.4824 32.4837 17.4795 32.4782 17.4769 32.4721C17.3704 32.2177 17.2945 31.9549 17.2384 31.6869C17.2192 31.595 17.2206 31.5009 17.2248 31.4072C17.2255 31.3905 17.2262 31.3738 17.2269 31.3571C17.2281 31.3294 17.2292 31.3016 17.2306 31.2739C17.2487 30.9189 17.3075 30.5704 17.4151 30.2296C17.4766 30.0354 17.5558 29.8479 17.6474 29.6649C17.6747 29.6104 17.7011 29.5553 17.7288 29.4976C17.7418 29.4705 17.7551 29.4428 17.7689 29.4143C17.7725 29.4212 17.7758 29.4272 17.7788 29.4328C17.7847 29.4437 17.7896 29.4528 17.794 29.462C17.8157 29.5082 17.8372 29.5544 17.8587 29.6007C17.9037 29.6974 17.9487 29.7942 17.9956 29.8901C18.0562 30.0142 18.1309 30.1308 18.2191 30.2392C18.2237 30.2448 18.2286 30.2501 18.2346 30.2566C18.2377 30.2599 18.2411 30.2635 18.2448 30.2676C18.4268 29.9819 18.5867 29.6887 18.7281 29.3863C18.8697 29.0834 18.9896 28.7729 19.0916 28.4559C19.1871 28.1592 19.2564 27.8562 19.3275 27.5449C19.3322 27.5245 19.3369 27.5039 19.3416 27.4834C19.3494 27.4893 19.3563 27.4943 19.3626 27.4987C19.3746 27.5072 19.384 27.514 19.392 27.5222C19.4288 27.5597 19.4658 27.5971 19.5027 27.6345C19.6125 27.7459 19.7223 27.8572 19.8299 27.9705C20.0193 28.17 20.1925 28.3819 20.3488 28.6059C20.5125 28.8404 20.6538 29.0863 20.7593 29.3498C20.7618 29.3559 20.7648 29.3619 20.7687 29.3696C20.771 29.3741 20.7736 29.3793 20.7765 29.3855C20.8453 29.2679 20.8958 29.1501 20.9342 29.0277C20.9606 28.9437 20.9848 28.859 21.0091 28.774C21.0199 28.7364 21.0307 28.6987 21.0417 28.6609C21.0446 28.6617 21.0471 28.6623 21.0493 28.6628C21.0533 28.6637 21.0563 28.6643 21.0584 28.666C21.0929 28.6926 21.1277 28.7189 21.1624 28.7451C21.2754 28.8304 21.3884 28.9157 21.4891 29.0148C21.6497 29.1729 21.7822 29.3489 21.8716 29.5527C21.8843 29.5817 21.8959 29.6113 21.9084 29.6435C21.9147 29.6596 21.9213 29.6764 21.9284 29.6941L22.0054 29.5799C22.0739 29.4784 22.1412 29.3786 22.2098 29.2769C22.2125 29.2797 22.215 29.2822 22.2174 29.2845C22.2219 29.289 22.2258 29.2929 22.229 29.2972C22.2492 29.3243 22.2694 29.3513 22.2897 29.3782C22.3894 29.511 22.4891 29.6437 22.5763 29.7846C22.7558 30.0749 22.8903 30.3818 22.9574 30.7137C22.9969 30.9089 23.0094 31.1058 22.9991 31.3042C22.9915 31.4507 22.9555 31.5919 22.91 31.7313C22.8997 31.7627 22.8889 31.794 22.878 31.8253C22.8656 31.861 22.8532 31.8966 22.8417 31.9325C22.8357 31.9513 22.8271 31.9666 22.8153 31.9796C22.5061 32.633 21.0453 33.2936 20.0654 33.4063C19.0786 33.5197 17.6442 32.9877 17.4878 32.498C17.4868 32.4949 17.4861 32.4917 17.4857 32.4885Z" fill="#FFFFFF"/>
<path d="M25.2514 17.4436C25.1942 16.8153 25.5083 16.1878 26.0845 15.7377C26.663 15.2857 27.413 15.09 28.0749 15.2491C30.1285 15.7425 32.8412 16.1667 36.0983 16.1667C39.7169 16.1667 42.8847 15.6431 45.2301 15.0869C45.8711 14.9348 46.5658 15.1341 47.0898 15.577C47.6117 16.0184 47.8927 16.6382 47.8149 17.2635C47.3918 20.6659 46.9068 25.6391 46.9068 30.5701C46.9068 35.7514 47.4424 40.8982 47.8792 44.2365C48.0347 45.4252 46.8962 46.4927 45.6884 46.2589C43.2241 45.7818 39.8456 45.273 36.6225 45.273C33.281 45.273 29.766 45.82 27.2758 46.3118C26.1148 46.5411 25.0367 45.5746 25.1394 44.4462C25.4744 40.7663 25.9352 34.8476 25.9352 30.1052C25.9352 25.872 25.5682 20.9272 25.2514 17.4436Z" stroke="#FFFFFF" stroke-width="1.6"/>
<path d="M48.1034 19.3805C48.8926 19.4516 49.7392 19.4933 50.6391 19.4933C54.2189 19.4933 57.2306 18.8331 59.0791 18.3006C59.2127 18.2622 59.3756 18.2947 59.5109 18.407C59.6443 18.5177 59.6909 18.6538 59.6747 18.771C59.3249 21.3001 58.7939 25.8833 58.7939 30.4211C58.7939 35.0992 59.3582 39.7398 59.7069 42.163C59.7417 42.4048 59.499 42.6406 59.2437 42.585C57.3407 42.1702 54.1027 41.58 51.0435 41.58C50.1507 41.58 49.2444 41.6302 48.3627 41.7111C47.9709 38.71 47.496 34.121 47.496 29.5202C47.496 25.9131 47.7879 22.2662 48.1034 19.3805ZM21.3784 19.4933C22.6312 19.4933 23.8139 19.4124 24.9009 19.2847C25.1466 22.2471 25.3807 25.9089 25.3807 29.0976C25.3807 33.2265 24.9884 38.3845 24.6874 41.7325C23.7359 41.6391 22.7516 41.58 21.7828 41.58C18.6582 41.58 15.34 42.1957 13.4501 42.6117C13.2012 42.6664 12.9833 42.4528 13.0043 42.2357C13.2583 39.6063 13.7215 34.244 13.7215 30.0624C13.7215 26.1684 13.32 21.4968 13.0597 18.8742C13.0485 18.7616 13.0992 18.6197 13.2555 18.5017C13.4146 18.3815 13.602 18.3511 13.7451 18.3955C15.4083 18.9129 18.0219 19.4933 21.3784 19.4933Z" stroke="#FFFFFF" stroke-width="1.6"/>
</svg>
