<svg width="46" height="48" viewBox="0 0 46 48" fill="none" xmlns="http://www.w3.org/2000/svg">
<path d="M28.418 0.625066C26.9824 0.63239 25.5835 1.18903 24.5508 2.32428C24.5361 2.33893 24.5654 2.36823 24.5508 2.38288C22.2437 4.70466 21.3501 7.01178 20.5664 9.06257C20.2295 9.9488 19.8926 10.7838 19.4531 11.6407C18.5889 10.6446 17.3438 10.0001 15.9375 10.0001C13.374 10.0001 11.25 12.1241 11.25 14.6876C11.25 17.251 13.374 19.3751 15.9375 19.3751C17.3291 19.3751 18.5303 18.7159 19.3945 17.7344L19.5117 17.8516L2.40234 34.9024L1.875 35.4883V42.9298L0 44.8633L2.63672 47.5001L4.57031 45.6251H12.0117L12.5977 45.0977L43.6523 13.9844L43.7109 13.9258C45.8716 11.7652 45.8716 8.23493 43.7109 6.07428L41.4258 3.78913C40.3418 2.70514 38.9355 2.1485 37.5 2.1485C36.1597 2.1485 34.856 2.66852 33.8086 3.61335L32.4609 2.32428C31.355 1.21833 29.8755 0.617742 28.418 0.625066ZM28.4766 4.37507C28.938 4.38239 29.436 4.57282 29.8242 4.961L31.1133 6.25007L19.6289 17.6758C22.1704 14.9805 23.291 12.4757 24.082 10.4102C24.8877 8.30085 25.3931 6.75544 27.1875 4.961L27.3047 4.84382C27.583 4.52887 28.0151 4.36774 28.4766 4.37507ZM37.5 5.83991C37.9395 5.83991 38.3716 6.00837 38.7891 6.42585L41.0742 8.711C41.9092 9.54597 41.9092 10.4542 41.0742 11.2891L39.375 12.9298L34.5703 8.12507L36.0352 6.66022L36.2109 6.42585C36.6284 6.00837 37.0605 5.83991 37.5 5.83991ZM31.875 10.8204L36.6797 15.6251L22.5 29.8048L17.6953 25.0001L31.875 10.8204ZM15.9375 13.7501C16.4795 13.7501 16.875 14.1456 16.875 14.6876C16.875 15.2296 16.4795 15.6251 15.9375 15.6251C15.3955 15.6251 15 15.2296 15 14.6876C15 14.1456 15.3955 13.7501 15.9375 13.7501ZM15 27.6954L19.8047 32.5001L10.4297 41.8751H5.625V37.0704L15 27.6954Z" fill="#E0A714"/>
</svg>
