<svg width="19" height="19" viewBox="0 0 19 19" fill="none" xmlns="http://www.w3.org/2000/svg">
<path d="M11.3672 0.150417C10.793 0.153347 10.2334 0.376003 9.82031 0.830105C9.81445 0.835964 9.82617 0.847683 9.82031 0.853542C8.89746 1.78225 8.54004 2.7051 8.22656 3.52542C8.0918 3.87991 7.95703 4.21389 7.78125 4.55667C7.43555 4.15823 6.9375 3.90042 6.375 3.90042C5.34961 3.90042 4.5 4.75003 4.5 5.77542C4.5 6.80081 5.34961 7.65042 6.375 7.65042C6.93164 7.65042 7.41211 7.38675 7.75781 6.99417L7.80469 7.04104L0.960938 13.8614L0.75 14.0957V17.0723L0 17.8457L1.05469 18.9004L1.82812 18.1504H4.80469L5.03906 17.9395L17.4609 5.49417L17.4844 5.47073C18.3486 4.60647 18.3486 3.19436 17.4844 2.3301L16.5703 1.41604C16.1367 0.982448 15.5742 0.759792 15 0.759792C14.4639 0.759792 13.9424 0.9678 13.5234 1.34573L12.9844 0.830105C12.542 0.387722 11.9502 0.147488 11.3672 0.150417ZM11.3906 1.65042C11.5752 1.65335 11.7744 1.72952 11.9297 1.88479L12.4453 2.40042L7.85156 6.97073C8.86816 5.8926 9.31641 4.89065 9.63281 4.06448C9.95508 3.22073 10.1572 2.60257 10.875 1.88479L10.9219 1.83792C11.0332 1.71194 11.2061 1.64749 11.3906 1.65042ZM15 2.23635C15.1758 2.23635 15.3486 2.30374 15.5156 2.47073L16.4297 3.38479C16.7637 3.71878 16.7637 4.08206 16.4297 4.41604L15.75 5.07229L13.8281 3.15042L14.4141 2.56448L14.4844 2.47073C14.6514 2.30374 14.8242 2.23635 15 2.23635ZM12.75 4.22854L14.6719 6.15042L9 11.8223L7.07812 9.90042L12.75 4.22854ZM6.375 5.40042C6.5918 5.40042 6.75 5.55862 6.75 5.77542C6.75 5.99221 6.5918 6.15042 6.375 6.15042C6.1582 6.15042 6 5.99221 6 5.77542C6 5.55862 6.1582 5.40042 6.375 5.40042ZM6 10.9785L7.92188 12.9004L4.17188 16.6504H2.25V14.7285L6 10.9785Z" fill="#111827"/>
</svg>
