<svg width="14" height="14" viewBox="0 0 14 14" fill="none" xmlns="http://www.w3.org/2000/svg">
<path d="M10.9531 0.984375C10.4297 0.984375 9.90625 1.1875 9.5 1.59375L1.59375 9.5L1.5625 9.65625L1.01562 12.4062L0.859375 13.1406L1.59375 12.9844L4.34375 12.4375L4.5 12.4062L12.4062 4.5C13.2188 3.6875 13.2188 2.40625 12.4062 1.59375C12 1.1875 11.4766 0.984375 10.9531 0.984375ZM10.9531 1.9375C11.2051 1.9375 11.459 2.05273 11.7031 2.29688C12.1895 2.7832 12.1895 3.31055 11.7031 3.79688L11.3438 4.14062L9.85938 2.65625L10.2031 2.29688C10.4473 2.05273 10.7012 1.9375 10.9531 1.9375ZM9.15625 3.35938L10.6406 4.84375L4.59375 10.8906C4.26562 10.25 3.75 9.73438 3.10938 9.40625L9.15625 3.35938ZM2.46875 10.2188C3.06836 10.4609 3.53906 10.9316 3.78125 11.5312L2.14062 11.8594L2.46875 10.2188Z" fill="white"/>
</svg>
