<svg width="50" height="50" viewBox="0 0 50 50" fill="none" xmlns="http://www.w3.org/2000/svg">
<path d="M37.9219 0.683362C37.3213 0.741956 36.7061 0.90309 36.1055 1.15211V1.09352C36.0762 1.10084 36.0176 1.14479 35.9883 1.15211C31.4253 2.75612 22.6875 6.77711 14.7773 14.6873C6.8086 22.656 2.96338 31.5549 1.24219 35.9568V36.0154C0.480473 38.2932 1.02247 40.7615 2.53125 42.5193L2.58985 42.5779V42.6365L8.21485 48.2029L8.44922 48.4373C10.002 49.99 12.6973 49.99 14.25 48.4373L21.9258 40.7615C23.4785 39.2088 23.4785 36.4548 21.9258 34.9021L18.2344 31.2107C18.8789 29.8704 20.5488 26.5745 23.5078 23.4763C26.4448 20.4002 29.814 18.8328 31.125 18.2615L34.9922 22.1287L35.168 22.2459C36.0469 22.8318 37.0503 23.1614 38.0977 23.1248C39.0791 23.0882 40.0972 22.6047 40.8516 21.7771L40.9102 21.8357L41.0273 21.6599L48.5859 14.1599C50.1387 12.6072 50.1387 9.85328 48.5859 8.30055L42.7852 2.49977C41.9648 1.67946 40.8589 1.06422 39.6797 0.80055C39.1084 0.676039 38.5225 0.624769 37.9219 0.683362ZM38.2148 4.43336C38.9253 4.38209 39.6357 4.68239 40.0898 5.13649L45.9492 10.9373C46.2715 11.2595 46.2715 11.1423 45.9492 11.4646L38.0977 19.3162C38.105 19.3089 38.0977 19.3674 37.9219 19.3748C37.7754 19.3821 37.5557 19.2576 37.3359 19.1404H37.2188L32.8242 14.6873L31.9453 13.8084L30.832 14.2185C30.832 14.2185 25.0679 16.3718 20.7539 20.8982C16.5132 25.3367 14.1914 30.8006 14.1914 30.8006L13.7227 31.9724L14.6016 32.9099L19.2891 37.5974C19.6113 37.9197 19.6113 37.8025 19.2891 38.1248L11.6133 45.8006C11.291 46.1228 11.4082 46.1228 11.0859 45.8006L5.34375 40.117C5.32911 40.1023 5.3584 40.073 5.34375 40.0584L5.28516 39.9998C4.63331 39.1868 4.43555 38.3225 4.75782 37.3045C4.76514 37.2825 4.75049 37.2678 4.75782 37.2459C6.42041 33.0125 10.0825 24.7141 17.4727 17.324C24.8921 9.90456 33.3076 6.08864 37.3945 4.66774L37.4531 4.60914H37.5117C37.7388 4.50661 37.9805 4.44801 38.2148 4.43336Z" fill="#E0A714"/>
</svg>
