<svg width="100" height="100" viewBox="0 0 100 100" fill="none" xmlns="http://www.w3.org/2000/svg">
<path d="M50 15.625C37.9517 15.625 28.125 25.4517 28.125 37.5C28.125 45.0317 31.9702 51.7212 37.793 55.6641C26.648 60.4492 18.75 71.5088 18.75 84.375H25C25 70.5322 36.1572 59.375 50 59.375C63.8428 59.375 75 70.5322 75 84.375H81.25C81.25 71.5088 73.3521 60.4492 62.207 55.6641C68.0298 51.7212 71.875 45.0317 71.875 37.5C71.875 25.4517 62.0483 15.625 50 15.625ZM50 21.875C58.667 21.875 65.625 28.833 65.625 37.5C65.625 46.167 58.667 53.125 50 53.125C41.333 53.125 34.375 46.167 34.375 37.5C34.375 28.833 41.333 21.875 50 21.875Z" fill="#E0A714"/>
</svg>
