<svg width="39" height="42" viewBox="0 0 39 42" fill="none" xmlns="http://www.w3.org/2000/svg">
<path d="M19.5 0.375C12.271 0.375 6.375 6.271 6.375 13.5C6.375 18.019 8.68213 22.0327 12.1758 24.3984C5.48877 27.2695 0.75 33.9053 0.75 41.625H4.5C4.5 33.3193 11.1943 26.625 19.5 26.625C27.8057 26.625 34.5 33.3193 34.5 41.625H38.25C38.25 33.9053 33.5112 27.2695 26.8242 24.3984C30.3179 22.0327 32.625 18.019 32.625 13.5C32.625 6.271 26.729 0.375 19.5 0.375ZM19.5 4.125C24.7002 4.125 28.875 8.29981 28.875 13.5C28.875 18.7002 24.7002 22.875 19.5 22.875C14.2998 22.875 10.125 18.7002 10.125 13.5C10.125 8.29981 14.2998 4.125 19.5 4.125Z" fill="#E0A714"/>
</svg>
