<svg width="201" height="200" viewBox="0 0 201 200" fill="none" xmlns="http://www.w3.org/2000/svg">
<g clip-path="url(#clip0_2201_32967)">
<rect x="0.5" width="200" height="200" rx="8" fill="white"/>
<g clip-path="url(#clip1_2201_32967)">
<path d="M211 200C205.283 186.093 186.939 176.139 181.819 174.516C176.417 172.822 154.636 169.645 147.551 167.951C140.467 166.256 129.664 158.209 126.683 151.467C124.087 145.608 123.631 130.642 123.526 126.724C123.526 126.124 123.526 125.771 123.526 125.771L100.482 130.289L77.4389 125.771C77.4389 125.771 77.4389 126.124 77.4389 126.724C77.3688 130.642 76.8777 145.608 74.2823 151.467C71.301 158.209 60.4983 166.256 53.4133 167.951C46.3284 169.645 24.5476 172.822 19.1462 174.516C13.9904 176.139 -4.31813 186.093 -10.0352 200H211Z" fill="#E0A714"/>
<path d="M62.5161 29.9068C69.8898 22.0723 85.739 19.0037 100.117 19C114.495 19.0037 130.345 22.0723 137.718 29.9068C145.092 37.7414 149.714 50.6256 149.223 63.6147C149.047 68.062 148.486 72.9682 147.574 78.1921C150.555 74.6977 152.028 79.8157 151.923 83.7336C151.783 87.9692 149.012 97.0404 146.417 103.147C144.347 108.053 141.927 104.382 141.05 102.723C140.033 105.653 138.946 108.653 137.718 111.688C130.283 130.29 108.923 140.667 100.119 140.667H100.115C91.3116 140.667 69.9517 130.29 62.5161 111.688C61.2885 108.653 60.2012 105.653 59.184 102.723C58.3072 104.382 55.8871 108.053 53.8178 103.147C51.2223 97.0404 48.4515 87.9692 48.3112 83.7336C48.206 79.8157 49.679 74.6977 52.6603 78.1921C51.7484 72.9682 51.1872 68.062 51.0119 63.6147C50.5208 50.6256 55.1423 37.7414 62.5161 29.9068Z" fill="#E0A714"/>
<path d="M123.666 130.324C115.178 137.066 105.673 140.666 100.482 140.666C95.2914 140.666 85.7864 137.031 77.2986 130.254C77.1583 133.466 76.9127 137.913 76.3516 142.113C84.4887 144.514 98.7286 146.667 104.305 145.29C111.075 143.596 123.666 130.324 123.666 130.324Z" fill="#DDA30D"/>
</g>
<path d="M111.74 116.031C105.532 122.239 95.4678 122.239 89.2603 116.031" stroke="white" stroke-width="3" stroke-linecap="round"/>
</g>
<rect x="3" y="2.5" width="195" height="195" rx="5.5" stroke="#E0A714" stroke-width="5"/>
<defs>
<clipPath id="clip0_2201_32967">
<rect x="0.5" width="200" height="200" rx="8" fill="white"/>
</clipPath>
<clipPath id="clip1_2201_32967">
<rect width="221" height="181" fill="white" transform="translate(-10 19)"/>
</clipPath>
</defs>
</svg>
