<svg width="40" height="43" viewBox="0 0 40 43" fill="none" xmlns="http://www.w3.org/2000/svg">
<path d="M23.125 0.375C19.5322 0.375 16.625 3.28223 16.625 6.875H6.875V15C3.28223 15 0.375 17.9072 0.375 21.5C0.375 25.0928 3.28223 28 6.875 28V36.125H16.625C16.625 39.7178 19.5322 42.625 23.125 42.625C26.7178 42.625 29.625 39.7178 29.625 36.125H39.375V24.75H36.125C34.189 24.75 32.875 23.436 32.875 21.5C32.875 19.564 34.189 18.25 36.125 18.25H39.375V6.875H29.625C29.625 3.28223 26.7178 0.375 23.125 0.375ZM23.125 3.625C25.061 3.625 26.375 4.93897 26.375 6.875V10.125H36.125V15C32.5322 15 29.625 17.9072 29.625 21.5C29.625 25.0928 32.5322 28 36.125 28V32.875H26.375V36.125C26.375 38.061 25.061 39.375 23.125 39.375C21.189 39.375 19.875 38.061 19.875 36.125V32.875H10.125V24.75H6.875C4.93897 24.75 3.625 23.436 3.625 21.5C3.625 19.564 4.93897 18.25 6.875 18.25H10.125V10.125H19.875V6.875C19.875 4.93897 21.189 3.625 23.125 3.625Z" fill="white"/>
</svg>
