<svg width="24" height="24" viewBox="0 0 24 24" fill="none" xmlns="http://www.w3.org/2000/svg">
<path d="M0 0V8.72727H2.18182V10.9091H4.36364V8.72727H8.72727V0H0ZM8.72727 8.72727V10.9091H10.9091V13.0909H6.54545V15.2727H0V24H8.72727V15.2727H15.2727V13.0909H13.0909V10.9091H17.4545V8.72727H19.6364V10.9091H21.8182V8.72727H24V0H15.2727V8.72727H8.72727ZM21.8182 10.9091V13.0909H24V10.9091H21.8182ZM21.8182 13.0909H19.6364V15.2727H21.8182V13.0909ZM21.8182 15.2727V17.4545H24V15.2727H21.8182ZM21.8182 17.4545H19.6364V15.2727H17.4545V17.4545H12V24H14.1818V19.6364H18.5455V21.8182H20.7273V19.6364H21.8182V17.4545ZM18.5455 21.8182H16.3636V24H18.5455V21.8182ZM19.6364 13.0909V10.9091H17.4545V13.0909H19.6364ZM6.54545 13.0909V10.9091H4.36364V13.0909H6.54545ZM2.18182 10.9091H0V13.0909H2.18182V10.9091ZM10.9091 0V4.36364H9.81818V6.54545H10.9091V7.63636H13.0909V4.36364H14.1818V2.18182H13.0909V0H10.9091ZM2.18182 2.18182H6.54545V6.54545H2.18182V2.18182ZM17.4545 2.18182H21.8182V6.54545H17.4545V2.18182ZM3.27273 3.27273V5.45455H5.45455V3.27273H3.27273ZM18.5455 3.27273V5.45455H20.7273V3.27273H18.5455ZM2.18182 17.4545H6.54545V21.8182H2.18182V17.4545ZM3.27273 18.5455V20.7273H5.45455V18.5455H3.27273ZM21.8182 21.8182V24H24V21.8182H21.8182Z" fill="white"/>
</svg>
