<svg width="81" height="129" viewBox="0 0 81 129" fill="none" xmlns="http://www.w3.org/2000/svg">
<path fill-rule="evenodd" clip-rule="evenodd" d="M72.2216 4.5H8.77809C6.58816 4.5 4.81287 6.29086 4.81287 8.5V120.5C4.81287 122.709 6.58816 124.5 8.77809 124.5H72.2216C74.4115 124.5 76.1868 122.709 76.1868 120.5V8.5C76.1868 6.29086 74.4115 4.5 72.2216 4.5ZM8.77809 0.5C4.39823 0.5 0.847656 4.08172 0.847656 8.5V120.5C0.847656 124.918 4.39823 128.5 8.77809 128.5H72.2216C76.6014 128.5 80.152 124.918 80.152 120.5V8.5C80.152 4.08172 76.6014 0.5 72.2216 0.5H8.77809Z" fill="#111827"/>
<ellipse cx="40.4996" cy="112.5" rx="5.94783" ry="6" fill="#111827"/>
<path d="M20.6738 38.5V53.0455H24.2786V56.6818H27.8833V53.0455H35.0928V38.5H20.6738ZM35.0928 53.0455V56.6818H38.6975V60.3182H31.4881V63.9545H20.6738V78.5H35.0928V63.9545H45.907V60.3182H42.3023V56.6818H49.5118V53.0455H53.1165V56.6818H56.7213V53.0455H60.326V38.5H45.907V53.0455H35.0928ZM56.7213 56.6818V60.3182H60.326V56.6818H56.7213ZM56.7213 60.3182H53.1165V63.9545H56.7213V60.3182ZM56.7213 63.9545V67.5909H60.326V63.9545H56.7213ZM56.7213 67.5909H53.1165V63.9545H49.5118V67.5909H40.4999V78.5H44.1047V71.2273H51.3141V74.8636H54.9189V71.2273H56.7213V67.5909ZM51.3141 74.8636H47.7094V78.5H51.3141V74.8636ZM53.1165 60.3182V56.6818H49.5118V60.3182H53.1165ZM31.4881 60.3182V56.6818H27.8833V60.3182H31.4881ZM24.2786 56.6818H20.6738V60.3182H24.2786V56.6818ZM38.6975 38.5V45.7727H36.8952V49.4091H38.6975V51.2273H42.3023V45.7727H44.1047V42.1364H42.3023V38.5H38.6975ZM24.2786 42.1364H31.4881V49.4091H24.2786V42.1364ZM49.5118 42.1364H56.7213V49.4091H49.5118V42.1364ZM26.0809 43.9545V47.5909H29.6857V43.9545H26.0809ZM51.3141 43.9545V47.5909H54.9189V43.9545H51.3141ZM24.2786 67.5909H31.4881V74.8636H24.2786V67.5909ZM26.0809 69.4091V73.0455H29.6857V69.4091H26.0809ZM56.7213 74.8636V78.5H60.326V74.8636H56.7213Z" fill="black"/>
<path d="M68.2562 78.5C68.2562 82.9183 64.7056 86.5 60.3258 86.5M12.7432 78.5C12.7432 82.9183 16.2937 86.5 20.6736 86.5M60.3258 30.5C64.7056 30.5 68.2562 34.0817 68.2562 38.5M12.7432 38.5C12.7432 34.0817 16.2937 30.5 20.6736 30.5" stroke="#111827" stroke-width="2" stroke-linecap="round"/>
</svg>
