<svg width="16" height="16" viewBox="0 0 16 16" fill="none" xmlns="http://www.w3.org/2000/svg">
<path d="M8.00016 0C4.59131 0 1.74495 2.10677 0.583496 5.08333L1.81266 5.58333C2.78402 3.09375 5.14079 1.33333 8.00016 1.33333C10.1616 1.33333 12.0887 2.39323 13.2918 4H10.6668V5.33333H15.3335V0.666667H14.0002V2.72917C12.5392 1.05469 10.3804 0 8.00016 0ZM14.1877 10.4167C13.2163 12.9062 10.8595 14.6667 8.00016 14.6667C5.81527 14.6667 3.896 13.5911 2.68766 12H5.3335V10.6667H0.666829V15.3333H2.00016V13.2708C3.4585 14.9245 5.59652 16 8.00016 16C11.409 16 14.2554 13.8932 15.4168 10.9167L14.1877 10.4167Z" fill="white"/>
</svg>
