<svg width="65" height="66" viewBox="0 0 65 66" fill="none" xmlns="http://www.w3.org/2000/svg">
<path d="M43.4697 48.4445L43.8919 49.0357L44.4962 48.6325L45.7109 47.822L46.3323 47.4074L45.9202 46.7843C45.7084 46.4642 41.3099 40.0273 32.4978 40.0273C23.6855 40.0273 19.2891 46.4644 19.0774 46.7843L18.6649 47.4079L19.2871 47.8223L20.5039 48.6328L21.1227 49.045L21.5403 48.4297L21.5405 48.4294C21.5596 48.4018 22.495 47.053 24.3148 45.7057C26.158 44.341 28.8906 42.9898 32.4998 42.9898C39.6609 42.9898 43.3865 48.3254 43.4684 48.4427L43.4697 48.4445ZM20.3123 29.5633C21.5675 29.5633 22.5857 28.545 22.5857 27.2898C22.5857 26.0347 21.5675 25.0164 20.3123 25.0164C19.0572 25.0164 18.0389 26.0347 18.0389 27.2898C18.0389 28.545 19.0572 29.5633 20.3123 29.5633ZM44.6873 25.0164C43.4322 25.0164 42.4139 26.0347 42.4139 27.2898C42.4139 28.545 43.4322 29.5633 44.6873 29.5633C45.9425 29.5633 46.9607 28.545 46.9607 27.2898C46.9607 26.0347 45.9425 25.0164 44.6873 25.0164ZM0.549805 33.3836C0.549805 51.0025 14.8809 65.3336 32.4998 65.3336C50.1187 65.3336 64.4498 51.0025 64.4498 33.3836C64.4498 15.7647 50.1187 1.43359 32.4998 1.43359C14.8809 1.43359 0.549805 15.7647 0.549805 33.3836ZM3.5123 33.3836C3.5123 17.3995 16.5157 4.39609 32.4998 4.39609C48.4819 4.39609 61.4873 17.3996 61.4873 33.3836C61.4873 49.3676 48.4819 62.3711 32.4998 62.3711C16.5158 62.3711 3.5123 49.3657 3.5123 33.3836Z" fill="#9CA3AF" stroke="#9CA3AF" stroke-width="1.5"/>
</svg>
