<svg width="45" height="46" viewBox="0 0 45 46" fill="none" xmlns="http://www.w3.org/2000/svg">
<path d="M31.875 0.5C28.5132 0.5 25.4663 1.12988 23.0859 2.31641C20.7056 3.50293 18.75 5.43652 18.75 8V15.5C18.75 15.7417 18.8306 15.9761 18.8672 16.2031C17.124 15.749 15.1904 15.5 13.125 15.5C9.76318 15.5 6.71631 16.1299 4.33594 17.3164C1.95557 18.5029 0 20.4365 0 23V38C0 40.5635 1.95557 42.4971 4.33594 43.6836C6.71631 44.8701 9.76318 45.5 13.125 45.5C16.4868 45.5 19.5337 44.8701 21.9141 43.6836C24.2944 42.4971 26.25 40.5635 26.25 38V37.2383C27.9712 37.6924 29.8535 38 31.875 38C35.2368 38 38.2837 37.3701 40.6641 36.1836C43.0444 34.9971 45 33.0635 45 30.5V8C45 5.43652 43.0444 3.50293 40.6641 2.31641C38.2837 1.12988 35.2368 0.5 31.875 0.5ZM31.875 4.25C34.7314 4.25 37.2729 4.86523 38.9648 5.71484C40.6567 6.56445 41.25 7.45801 41.25 8C41.25 8.54199 40.6567 9.43555 38.9648 10.2852C37.2729 11.1348 34.7314 11.75 31.875 11.75C29.0186 11.75 26.4771 11.1348 24.7852 10.2852C23.0933 9.43555 22.5 8.54199 22.5 8C22.5 7.45801 23.0933 6.56445 24.7852 5.71484C26.4771 4.86523 29.0186 4.25 31.875 4.25ZM22.5 13.332C22.6978 13.4419 22.8809 13.5811 23.0859 13.6836C25.4663 14.8701 28.5132 15.5 31.875 15.5C35.2368 15.5 38.2837 14.8701 40.6641 13.6836C40.8691 13.5811 41.0522 13.4419 41.25 13.332V15.5C41.25 16.042 40.6567 16.9355 38.9648 17.7852C37.2729 18.6348 34.7314 19.25 31.875 19.25C29.0186 19.25 26.4771 18.6348 24.7852 17.7852C23.0933 16.9355 22.5 16.042 22.5 15.5V13.332ZM13.125 19.25C15.9814 19.25 18.5229 19.8652 20.2148 20.7148C21.9067 21.5645 22.5 22.458 22.5 23C22.5 23.542 21.9067 24.4355 20.2148 25.2852C18.5229 26.1348 15.9814 26.75 13.125 26.75C10.2686 26.75 7.72705 26.1348 6.03516 25.2852C4.34326 24.4355 3.75 23.542 3.75 23C3.75 22.458 4.34326 21.5645 6.03516 20.7148C7.72705 19.8652 10.2686 19.25 13.125 19.25ZM41.25 20.832V23C41.25 23.542 40.6567 24.4355 38.9648 25.2852C37.2729 26.1348 34.7314 26.75 31.875 26.75C29.7437 26.75 27.8174 26.3984 26.25 25.8711V23C26.25 22.7583 26.1694 22.5239 26.1328 22.2969C27.876 22.751 29.8096 23 31.875 23C35.2368 23 38.2837 22.3701 40.6641 21.1836C40.8691 21.0811 41.0522 20.9419 41.25 20.832ZM3.75 28.332C3.94775 28.4419 4.13086 28.5811 4.33594 28.6836C6.71631 29.8701 9.76318 30.5 13.125 30.5C16.4868 30.5 19.5337 29.8701 21.9141 28.6836C22.1191 28.5811 22.3022 28.4419 22.5 28.332V30.5C22.5 31.042 21.9067 31.9355 20.2148 32.7852C18.5229 33.6348 15.9814 34.25 13.125 34.25C10.2686 34.25 7.72705 33.6348 6.03516 32.7852C4.34326 31.9355 3.75 31.042 3.75 30.5V28.332ZM41.25 28.332V30.5C41.25 31.042 40.6567 31.9355 38.9648 32.7852C37.2729 33.6348 34.7314 34.25 31.875 34.25C29.7437 34.25 27.8174 33.9497 26.25 33.4297V29.7969C27.9712 30.251 29.8462 30.5 31.875 30.5C35.2368 30.5 38.2837 29.8701 40.6641 28.6836C40.8691 28.5811 41.0522 28.4419 41.25 28.332ZM3.75 35.832C3.94775 35.9419 4.13086 36.0811 4.33594 36.1836C6.71631 37.3701 9.76318 38 13.125 38C16.4868 38 19.5337 37.3701 21.9141 36.1836C22.1191 36.0811 22.3022 35.9419 22.5 35.832V38C22.5 38.542 21.9067 39.4355 20.2148 40.2852C18.5229 41.1348 15.9814 41.75 13.125 41.75C10.2686 41.75 7.72705 41.1348 6.03516 40.2852C4.34326 39.4355 3.75 38.542 3.75 38V35.832Z" fill="#E0A714"/>
</svg>
