<svg width="24" height="24" viewBox="0 0 24 24" fill="none" xmlns="http://www.w3.org/2000/svg">
<path d="M14.625 0.625C9.80225 0.625 5.875 4.55225 5.875 9.375C5.875 11.4702 6.60986 13.3911 7.84375 14.8984L0.871094 21.8711L2.12891 23.1289L9.10156 16.1562C10.6089 17.3901 12.5298 18.125 14.625 18.125C19.4478 18.125 23.375 14.1978 23.375 9.375C23.375 4.55225 19.4478 0.625 14.625 0.625ZM14.625 2.375C18.501 2.375 21.625 5.49902 21.625 9.375C21.625 13.251 18.501 16.375 14.625 16.375C10.749 16.375 7.625 13.251 7.625 9.375C7.625 5.49902 10.749 2.375 14.625 2.375Z" fill="white"/>
</svg>
