<svg width="25" height="22" viewBox="0 0 25 22" fill="none" xmlns="http://www.w3.org/2000/svg">
<path d="M11.5 0C10.207 0 9.10547 0.84375 8.6875 2H0.5V4H8.6875C9.10547 5.15625 10.207 6 11.5 6C12.793 6 13.8945 5.15625 14.3125 4H24.5V2H14.3125C13.8945 0.84375 12.793 0 11.5 0ZM11.5 2C12.0625 2 12.5 2.4375 12.5 3C12.5 3.5625 12.0625 4 11.5 4C10.9375 4 10.5 3.5625 10.5 3C10.5 2.4375 10.9375 2 11.5 2ZM18.5 8C17.207 8 16.1055 8.84375 15.6875 10H0.5V12H15.6875C16.1055 13.1562 17.207 14 18.5 14C19.793 14 20.8945 13.1562 21.3125 12H24.5V10H21.3125C20.8945 8.84375 19.793 8 18.5 8ZM18.5 10C19.0625 10 19.5 10.4375 19.5 11C19.5 11.5625 19.0625 12 18.5 12C17.9375 12 17.5 11.5625 17.5 11C17.5 10.4375 17.9375 10 18.5 10ZM7.5 16C6.20703 16 5.10547 16.8438 4.6875 18H0.5V20H4.6875C5.10547 21.1562 6.20703 22 7.5 22C8.79297 22 9.89453 21.1562 10.3125 20H24.5V18H10.3125C9.89453 16.8438 8.79297 16 7.5 16ZM7.5 18C8.0625 18 8.5 18.4375 8.5 19C8.5 19.5625 8.0625 20 7.5 20C6.9375 20 6.5 19.5625 6.5 19C6.5 18.4375 6.9375 18 7.5 18Z" fill="#1DB3D3"/>
</svg>
