<svg width="39" height="30" viewBox="0 0 39 30" fill="none" xmlns="http://www.w3.org/2000/svg">
<path d="M4.5 0V4.57031L0.75 9.57031V10C0.75 12.0557 2.44434 13.75 4.5 13.75V30H24.5V18.75H27V30H34.5V13.75C36.5557 13.75 38.25 12.0557 38.25 10V9.57031L34.5 4.57031V0H4.5ZM7 2.5H32V3.75H7V2.5ZM6.375 6.25H32.625L35.6328 10.2734C35.4961 10.8154 35.0859 11.25 34.5 11.25C33.8066 11.25 33.25 10.6934 33.25 10H30.75C30.75 10.6934 30.1934 11.25 29.5 11.25C28.8066 11.25 28.25 10.6934 28.25 10H25.75C25.75 10.6934 25.1934 11.25 24.5 11.25C23.8066 11.25 23.25 10.6934 23.25 10H20.75C20.75 10.6934 20.1934 11.25 19.5 11.25C18.8066 11.25 18.25 10.6934 18.25 10H15.75C15.75 10.6934 15.1934 11.25 14.5 11.25C13.8066 11.25 13.25 10.6934 13.25 10H10.75C10.75 10.6934 10.1934 11.25 9.5 11.25C8.80664 11.25 8.25 10.6934 8.25 10H5.75C5.75 10.6934 5.19336 11.25 4.5 11.25C3.91406 11.25 3.50391 10.8154 3.36719 10.2734L6.375 6.25ZM7 12.7734C7.66406 13.374 8.54297 13.75 9.5 13.75C10.457 13.75 11.3359 13.374 12 12.7734C12.6641 13.374 13.543 13.75 14.5 13.75C15.457 13.75 16.3359 13.374 17 12.7734C17.6641 13.374 18.543 13.75 19.5 13.75C20.457 13.75 21.3359 13.374 22 12.7734C22.6641 13.374 23.543 13.75 24.5 13.75C25.457 13.75 26.3359 13.374 27 12.7734C27.6641 13.374 28.543 13.75 29.5 13.75C30.457 13.75 31.3359 13.374 32 12.7734V27.5H29.5V16.25H22V27.5H7V12.7734ZM9.5 16.25V25H19.5V16.25H9.5ZM12 18.75H17V22.5H12V18.75Z" fill="#FFFFFF"/>
</svg>
