<svg width="123" height="123" viewBox="0 0 123 123" fill="none" xmlns="http://www.w3.org/2000/svg">
<rect width="122" height="122" transform="translate(0.5 0.5)" fill="white" style="mix-blend-mode:multiply"/>
<path d="M33.0262 62.3181L33.0269 62.3179C33.7343 62.0682 34.217 61.4278 34.274 60.6876C34.3313 59.9421 33.9357 59.2346 33.2748 58.8907C23.9203 54.0073 18.1143 44.5342 18.1143 34.1676C18.1143 18.7426 30.7322 6.18827 46.2461 6.18827C61.5873 6.18827 74.073 18.7376 74.073 34.1676C74.073 44.546 68.2744 54.003 58.9215 58.848C58.2535 59.1929 57.865 59.9013 57.9168 60.6422C57.9688 61.3851 58.4571 62.0312 59.1664 62.2767C64.2859 64.0683 69.0584 66.9312 73.08 70.6061C70.4298 72.9442 68.2282 75.7806 66.6141 78.9529C64.5376 82.9474 63.4399 87.4561 63.4399 91.9995C63.4399 107.747 76.2488 120.559 91.9999 120.559C107.751 120.559 120.56 107.751 120.56 91.9995C120.56 76.2484 107.751 63.4395 91.9999 63.4395C86.321 63.4395 80.8343 65.1073 76.143 68.2572C76.1262 68.268 76.1095 68.2789 76.0929 68.2899C72.5374 64.943 68.4217 62.1872 63.9857 60.1765C72.6042 54.3115 77.8218 44.6572 77.8218 34.1638C77.8218 16.6727 63.6618 2.43945 46.2499 2.43945C28.675 2.43945 14.3731 16.6681 14.3731 34.1638C14.3731 44.6471 19.5953 54.3194 28.218 60.213C12.6549 67.2452 2.43994 82.7117 2.43994 99.8151V118.621V119.121H2.93994H5.68113H6.18113V118.621V99.8189C6.18113 83.0313 16.9662 67.9602 33.0262 62.3181ZM78.2152 71.3754L78.2181 71.3734C82.2987 68.6344 87.0664 67.1845 91.9999 67.1845C105.681 67.1845 116.815 78.3143 116.815 91.9956C116.815 105.677 105.681 116.811 91.9999 116.811C78.3185 116.811 67.185 105.677 67.185 91.9956C67.185 88.0531 68.1381 84.1367 69.9423 80.6628L69.9444 80.6588C71.8535 76.9002 74.7116 73.6911 78.2152 71.3754Z" fill="#E0A714" stroke="#E0A714"/>
<path d="M75.0776 93.3398L86.0739 104.336L107.447 82.9629" stroke="#E0A714" stroke-width="5" stroke-linecap="round"/>
</svg>
