<svg width="65" height="66" viewBox="0 0 65 66" fill="none" xmlns="http://www.w3.org/2000/svg">
<path d="M32.5 0.883789C14.502 0.883789 0 15.3857 0 33.3838C0 51.3818 14.502 65.8838 32.5 65.8838C50.498 65.8838 65 51.3818 65 33.3838C65 29.8877 64.5312 26.4014 63.2812 23.1494L59.2188 27.1338C59.7168 29.1357 60 31.1377 60 33.3838C60 48.6377 47.7539 60.8838 32.5 60.8838C17.2461 60.8838 5 48.6377 5 33.3838C5 18.1299 17.2461 5.88379 32.5 5.88379C40 5.88379 46.7383 8.87207 51.4844 13.6182L55 10.1025C49.248 4.35059 41.25 0.883789 32.5 0.883789ZM62.1173 13.0011C61.3363 12.2201 60.07 12.2201 59.2889 13.0011L32.5 39.79L23.2111 30.5011C22.43 29.7201 21.1637 29.7201 20.3827 30.5011L19.6173 31.2665C18.8363 32.0475 18.8363 33.3138 19.6173 34.0949L30.7031 45.1807L32.5 46.8994L34.2969 45.1807L62.8827 16.5949C63.6637 15.8138 63.6637 14.5475 62.8827 13.7664L62.1173 13.0011Z" fill="#22C55E"/>
</svg>
