<svg width="25" height="24" viewBox="0 0 25 24" fill="none" xmlns="http://www.w3.org/2000/svg">
<path d="M12.5 3.75L12.2656 3.96094L3.71094 12.6094L3.19531 13.125L3.71094 13.6641L10.8359 20.7891L11.375 21.3047L11.8906 20.7891L20.5391 12.2344L20.75 12V3.75H12.5ZM13.1328 5.25H19.25V11.3672L11.375 19.1953L5.30469 13.125L13.1328 5.25ZM17 6.75C16.5869 6.75 16.25 7.08691 16.25 7.5C16.25 7.91309 16.5869 8.25 17 8.25C17.4131 8.25 17.75 7.91309 17.75 7.5C17.75 7.08691 17.4131 6.75 17 6.75Z" fill="#E0A714"/>
</svg>
