<svg width="23" height="23" viewBox="0 0 23 23" fill="none" xmlns="http://www.w3.org/2000/svg">
<path d="M6.15625 0C4.74609 0 3.51562 0.996094 3.21875 2.375L1.0625 12.375C0.667967 14.2227 2.11328 16 4 16H9.75L9.5625 16.75C9.35937 16.9062 9.23047 16.9727 8.9375 17.375C8.46875 18.0156 8 19.0078 8 20.3438C8 21.7695 9.28906 23 10.9062 23H11.3125L11.625 22.7188L18.4062 16H23V0H6.15625ZM6.15625 2H17V14.5938L10.5937 20.9062C10.1719 20.8242 10 20.6523 10 20.3438C10 19.4414 10.2734 18.8828 10.5312 18.5312C10.7891 18.1797 10.9687 18.0938 10.9687 18.0938L11.3125 17.9062L11.4375 17.5L12.0312 15.25L12.3437 14H4C3.33984 14 2.89453 13.4258 3.03125 12.7812L5.15625 2.78125C5.25781 2.3125 5.67969 2 6.15625 2ZM19 2H21V14H19V2Z" fill="white"/>
</svg>
