<svg width="28" height="28" viewBox="0 0 28 28" fill="none" xmlns="http://www.w3.org/2000/svg">
<path d="M10.958 0C9.31348 0 7.95801 1.35547 7.95801 3V14.8125L7.30176 14.125L7.05176 13.9062C5.89941 12.7539 4.0166 12.7539 2.86426 13.9062C1.71191 15.0586 1.71191 16.9414 2.86426 18.0938V18.125L11.0518 26.2188L11.1143 26.25L11.1455 26.3125C12.4932 27.3242 14.2119 28 16.1455 28H17.8643C22.3994 28 26.0518 24.3477 26.0518 19.8125V12C26.0518 10.3555 24.6963 9 23.0518 9C22.626 9 22.2314 9.11719 21.8643 9.28125C21.5361 7.98047 20.3525 7 18.958 7C18.1924 7 17.4893 7.30078 16.958 7.78125C16.4268 7.30078 15.7236 7 14.958 7C14.6064 7 14.2744 7.07422 13.958 7.1875V3C13.958 1.35547 12.6025 0 10.958 0ZM10.958 2C11.5127 2 11.958 2.44531 11.958 3V14H13.958V10C13.958 9.44531 14.4033 9 14.958 9C15.5127 9 15.958 9.44531 15.958 10V14H17.958V10C17.958 9.44531 18.4033 9 18.958 9C19.5127 9 19.958 9.44531 19.958 10V14H22.0518V12C22.0518 11.4453 22.4971 11 23.0518 11C23.6064 11 24.0518 11.4453 24.0518 12V19.8125C24.0518 23.2773 21.3291 26 17.8643 26H16.1455C14.6807 26 13.415 25.4766 12.3643 24.6875L4.27051 16.6875C3.8252 16.2422 3.8252 15.7578 4.27051 15.3125C4.71582 14.8672 5.2002 14.8672 5.64551 15.3125L9.95801 19.625V3C9.95801 2.44531 10.4033 2 10.958 2Z" fill="white"/>
</svg>
