<svg width="24" height="24" viewBox="0 0 24 24" fill="none" xmlns="http://www.w3.org/2000/svg">
<path d="M12 3.75C9.1084 3.75 6.75 6.1084 6.75 9C6.75 10.8076 7.67285 12.4131 9.07031 13.3594C6.39551 14.5078 4.5 17.1621 4.5 20.25H6C6 16.9277 8.67773 14.25 12 14.25C15.3223 14.25 18 16.9277 18 20.25H19.5C19.5 17.1621 17.6045 14.5078 14.9297 13.3594C16.3271 12.4131 17.25 10.8076 17.25 9C17.25 6.1084 14.8916 3.75 12 3.75ZM12 5.25C14.0801 5.25 15.75 6.91992 15.75 9C15.75 11.0801 14.0801 12.75 12 12.75C9.91992 12.75 8.25 11.0801 8.25 9C8.25 6.91992 9.91992 5.25 12 5.25Z" fill="white"/>
</svg>
