<svg width="130" height="130" viewBox="0 0 130 130" fill="none" xmlns="http://www.w3.org/2000/svg">
<path d="M95.06 123.12C79.5851 123.12 67 110.531 67 95.06C67 90.5956 68.0789 86.1654 70.1186 82.2424C71.7885 78.9598 74.0989 76.0433 76.8896 73.6795C72.734 69.7755 67.7511 66.7407 62.3907 64.865C61.8722 64.6858 61.5138 64.2131 61.4757 63.6679C61.4376 63.1227 61.7235 62.6042 62.2115 62.3526C71.7275 57.423 77.6331 47.7964 77.6331 37.2282C77.6331 21.5245 64.926 8.74881 49.3062 8.74881C33.5186 8.74881 20.6743 21.5245 20.6743 37.2282C20.6743 47.785 26.5875 57.4268 36.1035 62.3945C36.5877 62.6461 36.8774 63.1646 36.8355 63.7098C36.7936 64.255 36.439 64.7239 35.9205 64.9069C19.664 70.6181 8.74119 85.8757 8.74119 102.879V121.681H6V102.876C6 85.6698 16.4615 70.1339 32.3177 63.3629C23.3774 57.6174 17.9331 47.8422 17.9331 37.2244C17.9331 20.0071 32.0089 6 49.31 6C66.4434 6 80.3819 20.0071 80.3819 37.2244C80.3819 47.8536 74.9414 57.6098 66.0049 63.3248C70.8316 65.3911 75.2998 68.3458 79.1009 71.9906C79.2229 71.9067 79.3487 71.819 79.4783 71.7351C84.0876 68.6394 89.4785 67 95.06 67C110.535 67 123.12 79.5851 123.12 95.06C123.12 110.535 110.535 123.12 95.06 123.12ZM95.06 69.745C90.0275 69.745 85.1628 71.2243 80.9995 74.0188C77.4234 76.3826 74.5068 79.6575 72.5586 83.4929C70.7172 87.0385 69.745 91.034 69.745 95.0562C69.745 109.014 81.1024 120.371 95.06 120.371C109.018 120.371 120.375 109.014 120.375 95.0562C120.375 81.0986 109.018 69.745 95.06 69.745Z" fill="#E0A714"/>
<path fill-rule="evenodd" clip-rule="evenodd" d="M73.1656 73.7393C69.7058 70.9155 65.7554 68.6911 61.565 67.2247C60.095 66.7126 59.0889 65.3743 58.9818 63.8423C58.8752 62.3182 59.6743 60.8495 61.0629 60.1321C69.7627 55.6247 75.1331 46.8463 75.1331 37.2282C75.1331 22.8925 63.5326 11.2488 49.3062 11.2488C34.8867 11.2488 23.1743 22.9178 23.1743 37.2282C23.1743 46.8336 28.5519 55.6322 37.2604 60.1783C38.6281 60.8911 39.4471 62.3548 39.3281 63.9016C39.2112 65.4219 38.2157 66.748 36.7526 67.2644L36.7491 67.2656C21.4755 72.6315 11.2412 86.9564 11.2412 102.879V124.181H3.5V102.876C3.5 86.078 12.9077 70.8097 27.4971 62.9167C19.9308 56.5883 15.4331 47.26 15.4331 37.2244C15.4331 18.6149 30.6397 3.5 49.31 3.5C67.8356 3.5 82.8819 18.638 82.8819 37.2244C82.8819 47.2661 78.3902 56.5802 70.8287 62.8858C73.8828 64.5429 76.7555 66.5454 79.3685 68.843C84.0968 65.9984 89.4948 64.5 95.06 64.5C111.916 64.5 125.62 78.2044 125.62 95.06C125.62 111.916 111.916 125.62 95.06 125.62C78.2041 125.62 64.5 111.912 64.5 95.06C64.5 90.2013 65.6722 85.3789 67.8954 81.099C69.2762 78.3871 71.0579 75.9045 73.1656 73.7393ZM95.06 72.245C90.5221 72.245 86.1427 73.5775 82.3928 76.0946L82.3854 76.0995L82.378 76.1044C79.165 78.2282 76.5406 81.1739 74.7876 84.6251L74.7824 84.6351L74.7773 84.6451C73.122 87.8323 72.245 91.4323 72.245 95.0562C72.245 107.633 82.4832 117.871 95.06 117.871C107.637 117.871 117.875 107.633 117.875 95.0562C117.875 82.4798 107.637 72.245 95.06 72.245ZM112.275 84.2557C113.251 85.232 113.251 86.8149 112.275 87.7912L89.1339 110.932L76.3699 98.1681C75.3935 97.1917 75.3935 95.6088 76.3699 94.6325C77.3462 93.6562 78.9291 93.6562 79.9054 94.6325L89.1339 103.861L108.739 84.2557C109.716 83.2793 111.298 83.2793 112.275 84.2557Z" fill="#E0A714"/>
</svg>
