<svg width="18" height="20" viewBox="0 0 18 20" fill="none" xmlns="http://www.w3.org/2000/svg">
<path d="M9.75 0.595703L8.46094 1.86133L4.17188 6.15039H0.75V13.6504H4.17188L8.46094 17.9395L9.75 19.2051V0.595703ZM14.8594 4.04102L13.8047 5.0957C16.4443 7.73535 16.4443 11.9717 13.8047 14.6113L14.8594 15.6895C18.0703 12.4785 18.0703 7.25195 14.8594 4.04102ZM8.25 4.22852V15.5723L5.03906 12.3613L4.80469 12.1504H2.25V7.65039H4.80469L5.03906 7.43945L8.25 4.22852ZM12.6797 6.2207L11.625 7.27539C13.0576 8.70801 13.0518 11.0811 11.6016 12.5957L12.7031 13.6504C14.7012 11.5645 14.6953 8.23633 12.6797 6.2207Z" fill="#111827"/>
</svg>
