<svg width="43" height="48" viewBox="0 0 43 48" fill="none" xmlns="http://www.w3.org/2000/svg">
<path d="M23.375 0.738281L20.1523 3.90234L9.42969 14.625H0.875V33.375H9.42969L20.1523 44.0977L23.375 47.2617V0.738281ZM36.1484 9.35156L33.5117 11.9883C40.1108 18.5874 40.1108 29.1782 33.5117 35.7773L36.1484 38.4727C44.1758 30.4453 44.1758 17.3789 36.1484 9.35156ZM19.625 9.82031V38.1797L11.5977 30.1523L11.0117 29.625H4.625V18.375H11.0117L11.5977 17.8477L19.625 9.82031ZM30.6992 14.8008L28.0625 17.4375C31.644 21.019 31.6294 26.9517 28.0039 30.7383L30.7578 33.375C35.7529 28.1602 35.7383 19.8398 30.6992 14.8008Z" fill="#E0A714"/>
</svg>
