<svg width="59" height="60" viewBox="0 0 59 60" fill="none" xmlns="http://www.w3.org/2000/svg">
<path d="M46.4863 0.749883C46.115 0.759404 45.7246 0.807013 45.3438 0.902227L5.73438 11.3378C2.53516 12.1757 0.25 15.1083 0.25 18.4218V51.9374C0.25 55.9459 3.55396 59.2499 7.5625 59.2499H51.4375C55.446 59.2499 58.75 55.9459 58.75 51.9374V20.2499C58.75 16.2413 55.446 12.9374 51.4375 12.9374H18.8359L46.5625 5.62488V10.4999H51.4375V5.62488C51.4375 2.8827 49.1047 0.711797 46.4863 0.749883ZM7.5625 17.8124H51.4375C52.8181 17.8124 53.875 18.8693 53.875 20.2499V51.9374C53.875 53.318 52.8181 54.3749 51.4375 54.3749H7.5625C6.18189 54.3749 5.125 53.318 5.125 51.9374V20.2499C5.125 18.8693 6.18189 17.8124 7.5625 17.8124ZM45.3438 32.4374C43.3252 32.4374 41.6875 34.0751 41.6875 36.0936C41.6875 38.1122 43.3252 39.7499 45.3438 39.7499C47.3623 39.7499 49 38.1122 49 36.0936C49 34.0751 47.3623 32.4374 45.3438 32.4374Z" fill="#D1D5DB"/>
</svg>
