<svg width="24" height="24" viewBox="0 0 24 24" fill="none" xmlns="http://www.w3.org/2000/svg">
<path d="M17 0C13.1445 0 10 3.14453 10 7C10 7.71484 10.2148 8.36328 10.4141 9.01562L0.945313 18.4844C-0.3125 19.7383 -0.3125 21.8008 0.945313 23.0586C2.19922 24.3125 4.26172 24.3125 5.51562 23.0586L14.9844 13.5898C15.6328 13.7891 16.2852 14 17 14C20.8555 14 24 10.8555 24 7C24 5.97266 23.7734 5 23.375 4.125L22.7812 2.80469L21.7617 3.82812L18.5859 7H17V5.41406L21.1953 1.21875L19.875 0.625C19 0.226563 18.0273 0 17 0ZM17 2C17.1719 2 17.3164 2.08594 17.4844 2.10156L15 4.58594V9H19.4141L21.8945 6.51562C21.9141 6.68359 22 6.82812 22 7C22 9.77344 19.7734 12 17 12C16.3008 12 15.6367 11.8555 15.0312 11.5977L14.4102 11.332L4.10156 21.6406C3.62109 22.125 2.83984 22.125 2.35938 21.6406C1.875 21.1602 1.875 20.3789 2.35938 19.8945L12.668 9.58984L12.4023 8.96484C12.1445 8.35938 12 7.69922 12 7C12 4.22656 14.2266 2 17 2Z" fill="white"/>
</svg>
